<svg xmlns="http://www.w3.org/2000/svg" width="367" height="33" viewBox="0 0 367 33" fill="none"><path d="M39.9617 14.3502C39.0723 14.3502 38.2677 14.1554 37.5477 13.7657C36.8362 13.3676 36.2772 12.8255 35.8706 12.1395C35.464 11.4449 35.2607 10.6656 35.2607 9.80167C35.2607 8.93771 35.464 8.16268 35.8706 7.4766C36.2772 6.78204 36.8404 6.23995 37.5604 5.85032C38.2804 5.45221 39.085 5.25316 39.9744 5.25316C40.669 5.25316 41.3042 5.37175 41.8802 5.60891C42.4562 5.83761 42.9475 6.18065 43.354 6.63804L42.5282 7.43848C41.859 6.73545 41.0247 6.38394 40.0252 6.38394C39.3646 6.38394 38.7674 6.53217 38.2338 6.82862C37.7002 7.12508 37.2809 7.53589 36.976 8.06104C36.6795 8.57772 36.5313 9.15793 36.5313 9.80167C36.5313 10.4454 36.6795 11.0299 36.976 11.555C37.2809 12.0717 37.7002 12.4783 38.2338 12.7747C38.7674 13.0712 39.3646 13.2194 40.0252 13.2194C41.0162 13.2194 41.8506 12.8637 42.5282 12.1522L43.354 12.9526C42.9475 13.41 42.4519 13.7573 41.8675 13.9944C41.2915 14.2316 40.6563 14.3502 39.9617 14.3502ZM47.5874 14.3248C46.9182 14.3248 46.3168 14.1765 45.7832 13.8801C45.2496 13.5836 44.8303 13.1771 44.5254 12.6604C44.2289 12.1352 44.0807 11.5423 44.0807 10.8816C44.0807 10.2209 44.2289 9.63227 44.5254 9.11558C44.8303 8.59043 45.2496 8.18386 45.7832 7.89587C46.3168 7.59941 46.9182 7.45119 47.5874 7.45119C48.2565 7.45119 48.8537 7.59941 49.3788 7.89587C49.9125 8.18386 50.3275 8.59043 50.624 9.11558C50.9289 9.63227 51.0813 10.2209 51.0813 10.8816C51.0813 11.5423 50.9289 12.1352 50.624 12.6604C50.3275 13.1771 49.9125 13.5836 49.3788 13.8801C48.8537 14.1765 48.2565 14.3248 47.5874 14.3248ZM47.5874 13.2575C48.0194 13.2575 48.4048 13.1601 48.7436 12.9653C49.0908 12.762 49.3619 12.4825 49.5567 12.1267C49.7515 11.7625 49.8489 11.3475 49.8489 10.8816C49.8489 10.4158 49.7515 10.005 49.5567 9.64921C49.3619 9.28499 49.0908 9.00547 48.7436 8.81066C48.4048 8.61584 48.0194 8.51843 47.5874 8.51843C47.1554 8.51843 46.7658 8.61584 46.4185 8.81066C46.0797 9.00547 45.8086 9.28499 45.6054 9.64921C45.4105 10.005 45.3131 10.4158 45.3131 10.8816C45.3131 11.3475 45.4105 11.7625 45.6054 12.1267C45.8086 12.4825 46.0797 12.762 46.4185 12.9653C46.7658 13.1601 47.1554 13.2575 47.5874 13.2575ZM61.1918 7.45119C62.0388 7.45119 62.708 7.69682 63.1992 8.18809C63.699 8.67937 63.9489 9.40781 63.9489 10.3734V14.2485H62.7292V10.5132C62.7292 9.86096 62.5767 9.36969 62.2718 9.03935C61.9753 8.70901 61.5476 8.54384 60.9885 8.54384C60.3702 8.54384 59.8789 8.73866 59.5147 9.12829C59.1505 9.50945 58.9684 10.06 58.9684 10.78V14.2485H57.7487V10.5132C57.7487 9.86096 57.5962 9.36969 57.2913 9.03935C56.9948 8.70901 56.5671 8.54384 56.008 8.54384C55.3897 8.54384 54.8984 8.73866 54.5342 9.12829C54.17 9.50945 53.9879 10.06 53.9879 10.78V14.2485H52.7682V7.51471H53.9371V8.51843C54.1827 8.17115 54.5046 7.90858 54.9027 7.7307C55.3008 7.54436 55.7539 7.45119 56.2621 7.45119C56.7873 7.45119 57.2532 7.55706 57.6597 7.76882C58.0663 7.98057 58.3797 8.28974 58.5999 8.69631C58.854 8.30668 59.2055 8.00175 59.6545 7.78152C60.1119 7.5613 60.6243 7.45119 61.1918 7.45119ZM69.7633 7.45119C70.4155 7.45119 71 7.59518 71.5167 7.88317C72.0334 8.17115 72.4357 8.57349 72.7237 9.09017C73.0201 9.60686 73.1684 10.204 73.1684 10.8816C73.1684 11.5592 73.0201 12.1606 72.7237 12.6858C72.4357 13.2025 72.0334 13.6048 71.5167 13.8928C71 14.1808 70.4155 14.3248 69.7633 14.3248C69.2805 14.3248 68.8358 14.2316 68.4293 14.0452C68.0312 13.8589 67.6924 13.5879 67.4128 13.2321V16.7134H66.1931V7.51471H67.362V8.58196C67.6331 8.20927 67.9761 7.92975 68.3912 7.74341C68.8062 7.54859 69.2636 7.45119 69.7633 7.45119ZM69.6617 13.2575C70.0937 13.2575 70.4791 13.1601 70.8179 12.9653C71.1652 12.762 71.4362 12.4825 71.631 12.1267C71.8343 11.7625 71.9359 11.3475 71.9359 10.8816C71.9359 10.4158 71.8343 10.005 71.631 9.64921C71.4362 9.28499 71.1652 9.00547 70.8179 8.81066C70.4791 8.61584 70.0937 8.51843 69.6617 8.51843C69.2382 8.51843 68.8528 8.62008 68.5055 8.82336C68.1667 9.01818 67.8957 9.29346 67.6924 9.64921C67.4976 10.005 67.4001 10.4158 67.4001 10.8816C67.4001 11.3475 67.4976 11.7625 67.6924 12.1267C67.8872 12.4825 68.1582 12.762 68.5055 12.9653C68.8528 13.1601 69.2382 13.2575 69.6617 13.2575ZM76.0225 8.64549C76.2342 8.25586 76.5476 7.9594 76.9627 7.75611C77.3777 7.55283 77.8817 7.45119 78.4746 7.45119V8.63278C78.4069 8.62431 78.3137 8.62008 78.1951 8.62008C77.5344 8.62008 77.0135 8.81913 76.6323 9.21723C76.2597 9.60686 76.0733 10.1659 76.0733 10.8943V14.2485H74.8536V7.51471H76.0225V8.64549ZM82.4176 7.45119C83.3494 7.45119 84.0609 7.67988 84.5521 8.13727C85.0519 8.59467 85.3017 9.27652 85.3017 10.1828V14.2485H84.1456V13.3592C83.9423 13.6726 83.6501 13.914 83.2689 14.0834C82.8962 14.2443 82.4515 14.3248 81.9348 14.3248C81.181 14.3248 80.5754 14.1427 80.118 13.7784C79.6691 13.4142 79.4446 12.9357 79.4446 12.3427C79.4446 11.7498 79.6606 11.2755 80.0926 10.9197C80.5245 10.5555 81.2106 10.3734 82.1508 10.3734H84.082V10.132C84.082 9.60686 83.9296 9.20452 83.6246 8.925C83.3197 8.64549 82.8708 8.50573 82.2779 8.50573C81.8798 8.50573 81.4901 8.57349 81.109 8.70901C80.7278 8.83607 80.406 9.00971 80.1434 9.22993L79.6352 8.31515C79.9825 8.03563 80.3975 7.82388 80.8803 7.67988C81.3631 7.52742 81.8755 7.45119 82.4176 7.45119ZM82.1381 13.3846C82.604 13.3846 83.0063 13.2829 83.3451 13.0796C83.6839 12.8679 83.9296 12.5714 84.082 12.1903V11.2501H82.2016C81.1683 11.2501 80.6516 11.5974 80.6516 12.2919C80.6516 12.6307 80.7829 12.8975 81.0455 13.0924C81.308 13.2872 81.6723 13.3846 82.1381 13.3846ZM38.6276 27.401C37.9246 27.401 37.2428 27.3078 36.5821 27.1215C35.9299 26.9267 35.4047 26.6768 35.0066 26.3719L35.7054 24.8218C36.0866 25.1013 36.5397 25.3258 37.0649 25.4952C37.59 25.6646 38.1152 25.7493 38.6404 25.7493C39.2248 25.7493 39.6568 25.6646 39.9363 25.4952C40.2158 25.3173 40.3556 25.0844 40.3556 24.7964C40.3556 24.5847 40.2709 24.411 40.1015 24.2755C39.9405 24.1315 39.7288 24.0171 39.4662 23.9324C39.2121 23.8477 38.8648 23.7546 38.4244 23.6529C37.7467 23.492 37.1919 23.3311 36.76 23.1701C36.328 23.0092 35.9553 22.7508 35.6419 22.3951C35.337 22.0394 35.1845 21.565 35.1845 20.9721C35.1845 20.4554 35.3243 19.9896 35.6038 19.5745C35.8833 19.151 36.3026 18.8164 36.8616 18.5708C37.4291 18.3252 38.1194 18.2023 38.9326 18.2023C39.5001 18.2023 40.0549 18.2701 40.597 18.4056C41.1391 18.5412 41.6134 18.736 42.02 18.9901L41.3847 20.5528C40.5631 20.087 39.7415 19.854 38.9199 19.854C38.3439 19.854 37.9161 19.9472 37.6366 20.1336C37.3656 20.3199 37.2301 20.5655 37.2301 20.8705C37.2301 21.1754 37.3868 21.4041 37.7002 21.5565C38.022 21.7005 38.5091 21.8445 39.1613 21.9885C39.8389 22.1495 40.3937 22.3104 40.8257 22.4713C41.2576 22.6323 41.6261 22.8864 41.931 23.2337C42.2444 23.5809 42.4011 24.051 42.4011 24.6439C42.4011 25.1522 42.2571 25.618 41.9691 26.0415C41.6896 26.4566 41.2661 26.7869 40.6986 27.0325C40.1311 27.2782 39.4408 27.401 38.6276 27.401ZM50.3635 23.8562C50.3635 23.8816 50.3508 24.0595 50.3254 24.3898H45.1543C45.2475 24.8133 45.4677 25.1479 45.815 25.3936C46.1623 25.6392 46.5942 25.762 47.1109 25.762C47.4667 25.762 47.7801 25.7112 48.0511 25.6095C48.3306 25.4994 48.589 25.33 48.8262 25.1013L49.8807 26.2448C49.237 26.9817 48.2968 27.3502 47.0601 27.3502C46.2893 27.3502 45.6075 27.2019 45.0146 26.9055C44.4216 26.6006 43.9642 26.1813 43.6424 25.6477C43.3205 25.114 43.1596 24.5084 43.1596 23.8308C43.1596 23.1617 43.3163 22.5603 43.6297 22.0266C43.9515 21.4846 44.3878 21.0653 44.9383 20.7688C45.4974 20.4639 46.1199 20.3114 46.806 20.3114C47.4752 20.3114 48.0808 20.4554 48.6229 20.7434C49.165 21.0314 49.5885 21.4464 49.8934 21.9885C50.2068 22.5222 50.3635 23.1447 50.3635 23.8562ZM46.8187 21.8107C46.3698 21.8107 45.9929 21.9377 45.6879 22.1918C45.383 22.4459 45.1967 22.7932 45.1289 23.2337H48.4958C48.4281 22.8017 48.2417 22.4586 47.9368 22.2045C47.6319 21.9419 47.2592 21.8107 46.8187 21.8107ZM58.7345 20.4131V26.1051C58.7345 27.3586 58.4084 28.2904 57.7562 28.9002C57.104 29.5101 56.1511 29.815 54.8975 29.815C54.2368 29.815 53.61 29.7345 53.0171 29.5736C52.4242 29.4127 51.9329 29.1797 51.5433 28.8748L52.331 27.4518C52.619 27.689 52.9832 27.8753 53.4237 28.0109C53.8641 28.1548 54.3046 28.2268 54.745 28.2268C55.4311 28.2268 55.9351 28.0701 56.257 27.7567C56.5873 27.4518 56.7525 26.986 56.7525 26.3592V26.0669C56.2358 26.6344 55.5158 26.9182 54.5926 26.9182C53.9658 26.9182 53.3898 26.7827 52.8647 26.5116C52.348 26.2321 51.9372 25.8425 51.6322 25.3427C51.3273 24.843 51.1748 24.267 51.1748 23.6148C51.1748 22.9626 51.3273 22.3866 51.6322 21.8869C51.9372 21.3871 52.348 21.0017 52.8647 20.7307C53.3898 20.4512 53.9658 20.3114 54.5926 20.3114C55.5836 20.3114 56.3374 20.6375 56.8541 21.2897V20.4131H58.7345ZM54.9864 25.2919C55.5116 25.2919 55.9393 25.1395 56.2697 24.8345C56.6085 24.5211 56.7779 24.1146 56.7779 23.6148C56.7779 23.1151 56.6085 22.7127 56.2697 22.4078C55.9393 22.0944 55.5116 21.9377 54.9864 21.9377C54.4613 21.9377 54.0293 22.0944 53.6905 22.4078C53.3517 22.7127 53.1823 23.1151 53.1823 23.6148C53.1823 24.1146 53.3517 24.5211 53.6905 24.8345C54.0293 25.1395 54.4613 25.2919 54.9864 25.2919ZM67.4656 20.4131V27.2485H65.5852V26.4354C65.3226 26.7319 65.0092 26.9605 64.645 27.1215C64.2808 27.2739 63.8869 27.3502 63.4634 27.3502C62.5655 27.3502 61.854 27.0918 61.3289 26.5752C60.8037 26.0585 60.5412 25.2919 60.5412 24.2755V20.4131H62.5232V23.9833C62.5232 25.0844 62.9848 25.635 63.9081 25.635C64.3824 25.635 64.7636 25.4825 65.0515 25.1776C65.3395 24.8642 65.4835 24.4025 65.4835 23.7927V20.4131H67.4656ZM71.1949 21.3151C71.432 20.9848 71.7497 20.7349 72.1478 20.5655C72.5543 20.3961 73.0202 20.3114 73.5454 20.3114V22.141C73.3251 22.1241 73.1769 22.1156 73.1007 22.1156C72.5332 22.1156 72.0885 22.2765 71.7666 22.5984C71.4447 22.9118 71.2838 23.3861 71.2838 24.0214V27.2485H69.3018V20.4131H71.1949V21.3151ZM77.4437 20.3114C78.5025 20.3114 79.3156 20.5655 79.8831 21.0737C80.4506 21.5735 80.7344 22.3316 80.7344 23.348V27.2485H78.8794V26.3973C78.5067 27.0325 77.8122 27.3502 76.7957 27.3502C76.2706 27.3502 75.8132 27.2612 75.4236 27.0834C75.0424 26.9055 74.7502 26.6599 74.5469 26.3465C74.3436 26.0331 74.242 25.6773 74.242 25.2792C74.242 24.6439 74.4791 24.1442 74.9535 23.78C75.4363 23.4158 76.1774 23.2337 77.1769 23.2337H78.7524C78.7524 22.8017 78.6211 22.4713 78.3585 22.2426C78.0959 22.0055 77.702 21.8869 77.1769 21.8869C76.8127 21.8869 76.4527 21.9462 76.0969 22.0648C75.7497 22.1749 75.4532 22.3273 75.2076 22.5222L74.4961 21.1373C74.8688 20.8747 75.3134 20.6714 75.8301 20.5274C76.3553 20.3834 76.8931 20.3114 77.4437 20.3114ZM77.2912 26.0161C77.63 26.0161 77.9307 25.9399 78.1933 25.7874C78.4559 25.6265 78.6422 25.3936 78.7524 25.0886V24.3898H77.3929C76.5797 24.3898 76.1732 24.6566 76.1732 25.1903C76.1732 25.4444 76.2706 25.6477 76.4654 25.8001C76.6687 25.9441 76.944 26.0161 77.2912 26.0161Z" fill="#F2EAF8"></path><path d="M15.5496 29.4452C15.9475 29.6577 16.447 29.6563 16.8449 29.4438C27.6896 23.6181 28.4597 12.2361 28.4503 8.99979C28.4492 8.73968 28.3724 8.48551 28.2291 8.26842C28.0858 8.05133 27.8823 7.88073 27.6436 7.77753L16.7475 2.95077C16.5741 2.87434 16.3866 2.83497 16.1971 2.83521C16.0076 2.83544 15.8203 2.87526 15.647 2.95213L4.82676 7.77889C4.59151 7.88214 4.3909 8.05085 4.24883 8.26491C4.10677 8.47898 4.02923 8.72936 4.02546 8.98625C3.97944 12.2063 4.62779 23.6127 15.5496 29.4452ZM11.7407 13.9321L14.8444 17.0358L20.6552 11.225L22.5691 13.1389L14.8444 20.8637L9.82678 15.846L11.7407 13.9321Z" fill="#F2EAF8"></path><path d="M295.004 5.35481C296.156 5.35481 297.062 5.63009 297.723 6.18065C298.383 6.73122 298.714 7.4893 298.714 8.45491C298.714 9.42051 298.383 10.1786 297.723 10.7292C297.062 11.2797 296.156 11.555 295.004 11.555H292.806V14.2485H291.535V5.35481H295.004ZM294.966 10.4496C295.77 10.4496 296.384 10.2802 296.808 9.94143C297.231 9.59415 297.443 9.09864 297.443 8.45491C297.443 7.81117 297.231 7.3199 296.808 6.98109C296.384 6.63381 295.77 6.46017 294.966 6.46017H292.806V10.4496H294.966ZM301.46 8.64549C301.671 8.25586 301.985 7.9594 302.4 7.75611C302.815 7.55283 303.319 7.45119 303.912 7.45119V8.63278C303.844 8.62431 303.751 8.62008 303.632 8.62008C302.972 8.62008 302.451 8.81913 302.07 9.21723C301.697 9.60686 301.51 10.1659 301.51 10.8943V14.2485H300.291V7.51471H301.46V8.64549ZM305.415 7.51471H306.635V14.2485H305.415V7.51471ZM306.025 6.21877C305.788 6.21877 305.589 6.14254 305.428 5.99007C305.275 5.83761 305.199 5.65126 305.199 5.43104C305.199 5.21081 305.275 5.02447 305.428 4.872C305.589 4.71107 305.788 4.6306 306.025 4.6306C306.262 4.6306 306.457 4.70684 306.609 4.8593C306.77 5.00329 306.851 5.1854 306.851 5.40563C306.851 5.63432 306.77 5.82914 306.609 5.99007C306.457 6.14254 306.262 6.21877 306.025 6.21877ZM314.922 7.51471L311.975 14.2485H310.73L307.782 7.51471H309.053L311.365 12.9145L313.728 7.51471H314.922ZM318.302 7.45119C319.234 7.45119 319.945 7.67988 320.436 8.13727C320.936 8.59467 321.186 9.27652 321.186 10.1828V14.2485H320.03V13.3592C319.827 13.6726 319.534 13.914 319.153 14.0834C318.781 14.2443 318.336 14.3248 317.819 14.3248C317.065 14.3248 316.46 14.1427 316.002 13.7784C315.553 13.4142 315.329 12.9357 315.329 12.3427C315.329 11.7498 315.545 11.2755 315.977 10.9197C316.409 10.5555 317.095 10.3734 318.035 10.3734H319.966V10.132C319.966 9.60686 319.814 9.20452 319.509 8.925C319.204 8.64549 318.755 8.50573 318.162 8.50573C317.764 8.50573 317.374 8.57349 316.993 8.70901C316.612 8.83607 316.29 9.00971 316.028 9.22993L315.52 8.31515C315.867 8.03563 316.282 7.82388 316.765 7.67988C317.247 7.52742 317.76 7.45119 318.302 7.45119ZM318.022 13.3846C318.488 13.3846 318.891 13.2829 319.229 13.0796C319.568 12.8679 319.814 12.5714 319.966 12.1903V11.2501H318.086C317.053 11.2501 316.536 11.5974 316.536 12.2919C316.536 12.6307 316.667 12.8975 316.93 13.0924C317.192 13.2872 317.557 13.3846 318.022 13.3846ZM326.415 14.3248C325.729 14.3248 325.115 14.1765 324.573 13.8801C324.04 13.5836 323.62 13.1771 323.315 12.6604C323.01 12.1352 322.858 11.5423 322.858 10.8816C322.858 10.2209 323.01 9.63227 323.315 9.11558C323.62 8.59043 324.04 8.18386 324.573 7.89587C325.115 7.59941 325.729 7.45119 326.415 7.45119C327.025 7.45119 327.567 7.574 328.042 7.81964C328.525 8.06528 328.897 8.42103 329.16 8.88689L328.232 9.48404C328.021 9.16217 327.758 8.92077 327.445 8.75983C327.131 8.5989 326.784 8.51843 326.403 8.51843C325.962 8.51843 325.564 8.61584 325.208 8.81066C324.861 9.00547 324.586 9.28499 324.383 9.64921C324.188 10.005 324.09 10.4158 324.09 10.8816C324.09 11.356 324.188 11.7752 324.383 12.1395C324.586 12.4952 324.861 12.7705 325.208 12.9653C325.564 13.1601 325.962 13.2575 326.403 13.2575C326.784 13.2575 327.131 13.1771 327.445 13.0161C327.758 12.8552 328.021 12.6138 328.232 12.2919L329.16 12.8764C328.897 13.3422 328.525 13.7022 328.042 13.9563C327.567 14.2019 327.025 14.3248 326.415 14.3248ZM330.739 7.51471H331.959V14.2485H330.739V7.51471ZM331.349 6.21877C331.112 6.21877 330.913 6.14254 330.752 5.99007C330.599 5.83761 330.523 5.65126 330.523 5.43104C330.523 5.21081 330.599 5.02447 330.752 4.872C330.913 4.71107 331.112 4.6306 331.349 4.6306C331.586 4.6306 331.781 4.70684 331.933 4.8593C332.094 5.00329 332.175 5.1854 332.175 5.40563C332.175 5.63432 332.094 5.82914 331.933 5.99007C331.781 6.14254 331.586 6.21877 331.349 6.21877ZM340.64 4.82118V14.2485H339.471V13.1813C339.2 13.554 338.857 13.8377 338.442 14.0325C338.027 14.2274 337.57 14.3248 337.07 14.3248C336.418 14.3248 335.833 14.1808 335.317 13.8928C334.8 13.6048 334.393 13.2025 334.097 12.6858C333.809 12.1606 333.665 11.5592 333.665 10.8816C333.665 10.204 333.809 9.60686 334.097 9.09017C334.393 8.57349 334.8 8.17115 335.317 7.88317C335.833 7.59518 336.418 7.45119 337.07 7.45119C337.553 7.45119 337.997 7.54436 338.404 7.7307C338.811 7.90858 339.149 8.17539 339.42 8.53114V4.82118H340.64ZM337.172 13.2575C337.595 13.2575 337.98 13.1601 338.328 12.9653C338.675 12.762 338.946 12.4825 339.141 12.1267C339.336 11.7625 339.433 11.3475 339.433 10.8816C339.433 10.4158 339.336 10.005 339.141 9.64921C338.946 9.28499 338.675 9.00547 338.328 8.81066C337.98 8.61584 337.595 8.51843 337.172 8.51843C336.74 8.51843 336.35 8.61584 336.003 8.81066C335.664 9.00547 335.393 9.28499 335.19 9.64921C334.995 10.005 334.897 10.4158 334.897 10.8816C334.897 11.3475 334.995 11.7625 335.19 12.1267C335.393 12.4825 335.664 12.762 336.003 12.9653C336.35 13.1601 336.74 13.2575 337.172 13.2575ZM345.4 7.45119C346.332 7.45119 347.043 7.67988 347.535 8.13727C348.034 8.59467 348.284 9.27652 348.284 10.1828V14.2485H347.128V13.3592C346.925 13.6726 346.632 13.914 346.251 14.0834C345.879 14.2443 345.434 14.3248 344.917 14.3248C344.163 14.3248 343.558 14.1427 343.1 13.7784C342.651 13.4142 342.427 12.9357 342.427 12.3427C342.427 11.7498 342.643 11.2755 343.075 10.9197C343.507 10.5555 344.193 10.3734 345.133 10.3734H347.064V10.132C347.064 9.60686 346.912 9.20452 346.607 8.925C346.302 8.64549 345.853 8.50573 345.26 8.50573C344.862 8.50573 344.473 8.57349 344.091 8.70901C343.71 8.83607 343.388 9.00971 343.126 9.22993L342.618 8.31515C342.965 8.03563 343.38 7.82388 343.863 7.67988C344.346 7.52742 344.858 7.45119 345.4 7.45119ZM345.121 13.3846C345.586 13.3846 345.989 13.2829 346.328 13.0796C346.666 12.8679 346.912 12.5714 347.064 12.1903V11.2501H345.184C344.151 11.2501 343.634 11.5974 343.634 12.2919C343.634 12.6307 343.765 12.8975 344.028 13.0924C344.29 13.2872 344.655 13.3846 345.121 13.3846ZM356.931 4.82118V14.2485H355.762V13.1813C355.491 13.554 355.148 13.8377 354.733 14.0325C354.318 14.2274 353.861 14.3248 353.361 14.3248C352.709 14.3248 352.124 14.1808 351.608 13.8928C351.091 13.6048 350.684 13.2025 350.388 12.6858C350.1 12.1606 349.956 11.5592 349.956 10.8816C349.956 10.204 350.1 9.60686 350.388 9.09017C350.684 8.57349 351.091 8.17115 351.608 7.88317C352.124 7.59518 352.709 7.45119 353.361 7.45119C353.844 7.45119 354.289 7.54436 354.695 7.7307C355.102 7.90858 355.44 8.17539 355.712 8.53114V4.82118H356.931ZM353.463 13.2575C353.886 13.2575 354.272 13.1601 354.619 12.9653C354.966 12.762 355.237 12.4825 355.432 12.1267C355.627 11.7625 355.724 11.3475 355.724 10.8816C355.724 10.4158 355.627 10.005 355.432 9.64921C355.237 9.28499 354.966 9.00547 354.619 8.81066C354.272 8.61584 353.886 8.51843 353.463 8.51843C353.031 8.51843 352.641 8.61584 352.294 8.81066C351.955 9.00547 351.684 9.28499 351.481 9.64921C351.286 10.005 351.188 10.4158 351.188 10.8816C351.188 11.3475 351.286 11.7625 351.481 12.1267C351.684 12.4825 351.955 12.762 352.294 12.9653C352.641 13.1601 353.031 13.2575 353.463 13.2575ZM365.325 10.9197C365.325 11.0129 365.316 11.1357 365.299 11.2882H359.836C359.912 11.8811 360.171 12.3597 360.611 12.7239C361.06 13.0796 361.615 13.2575 362.276 13.2575C363.08 13.2575 363.728 12.9865 364.22 12.4444L364.893 13.2321C364.588 13.5879 364.207 13.8589 363.749 14.0452C363.301 14.2316 362.797 14.3248 362.237 14.3248C361.526 14.3248 360.895 14.1808 360.344 13.8928C359.794 13.5963 359.366 13.1855 359.061 12.6604C358.765 12.1352 358.616 11.5423 358.616 10.8816C358.616 10.2294 358.76 9.64074 359.048 9.11558C359.345 8.59043 359.747 8.18386 360.255 7.89587C360.772 7.59941 361.352 7.45119 361.996 7.45119C362.64 7.45119 363.212 7.59941 363.711 7.89587C364.22 8.18386 364.613 8.59043 364.893 9.11558C365.181 9.64074 365.325 10.2421 365.325 10.9197ZM361.996 8.48032C361.412 8.48032 360.92 8.65819 360.522 9.01394C360.133 9.36969 359.904 9.83555 359.836 10.4115H364.156C364.088 9.84402 363.855 9.3824 363.457 9.02665C363.068 8.66243 362.581 8.48032 361.996 8.48032ZM295.105 18.3548C295.893 18.3548 296.575 18.4861 297.151 18.7487C297.735 19.0112 298.184 19.3839 298.498 19.8667C298.811 20.3495 298.968 20.9213 298.968 21.582C298.968 22.2342 298.811 22.8059 298.498 23.2972C298.184 23.78 297.735 24.1527 297.151 24.4152C296.575 24.6694 295.893 24.7964 295.105 24.7964H293.314V27.2485H291.256V18.3548H295.105ZM294.991 23.1193C295.609 23.1193 296.08 22.988 296.401 22.7254C296.723 22.4544 296.884 22.0732 296.884 21.582C296.884 21.0822 296.723 20.7011 296.401 20.4385C296.08 20.1674 295.609 20.0319 294.991 20.0319H293.314V23.1193H294.991ZM302.191 21.3151C302.428 20.9848 302.745 20.7349 303.144 20.5655C303.55 20.3961 304.016 20.3114 304.541 20.3114V22.141C304.321 22.1241 304.173 22.1156 304.096 22.1156C303.529 22.1156 303.084 22.2765 302.762 22.5984C302.441 22.9118 302.28 23.3861 302.28 24.0214V27.2485H300.298V20.4131H302.191V21.3151ZM308.91 27.3502C308.19 27.3502 307.542 27.2019 306.966 26.9055C306.399 26.6006 305.954 26.1813 305.632 25.6477C305.31 25.114 305.149 24.5084 305.149 23.8308C305.149 23.1532 305.31 22.5476 305.632 22.0139C305.954 21.4803 306.399 21.0653 306.966 20.7688C307.542 20.4639 308.19 20.3114 308.91 20.3114C309.63 20.3114 310.274 20.4639 310.841 20.7688C311.409 21.0653 311.854 21.4803 312.175 22.0139C312.497 22.5476 312.658 23.1532 312.658 23.8308C312.658 24.5084 312.497 25.114 312.175 25.6477C311.854 26.1813 311.409 26.6006 310.841 26.9055C310.274 27.2019 309.63 27.3502 308.91 27.3502ZM308.91 25.7239C309.418 25.7239 309.833 25.5545 310.155 25.2157C310.486 24.8684 310.651 24.4068 310.651 23.8308C310.651 23.2548 310.486 22.7974 310.155 22.4586C309.833 22.1113 309.418 21.9377 308.91 21.9377C308.402 21.9377 307.983 22.1113 307.652 22.4586C307.322 22.7974 307.157 23.2548 307.157 23.8308C307.157 24.4068 307.322 24.8684 307.652 25.2157C307.983 25.5545 308.402 25.7239 308.91 25.7239ZM318.392 26.9182C318.197 27.0622 317.956 27.1723 317.668 27.2485C317.388 27.3163 317.092 27.3502 316.778 27.3502C315.965 27.3502 315.334 27.1427 314.885 26.7276C314.445 26.3126 314.224 25.7027 314.224 24.898V22.0902H313.17V20.5655H314.224V18.9011H316.206V20.5655H317.909V22.0902H316.206V24.8726C316.206 25.1606 316.278 25.3851 316.422 25.546C316.575 25.6985 316.787 25.7747 317.058 25.7747C317.371 25.7747 317.638 25.69 317.858 25.5206L318.392 26.9182ZM325.989 23.8562C325.989 23.8816 325.976 24.0595 325.951 24.3898H320.78C320.873 24.8133 321.093 25.1479 321.441 25.3936C321.788 25.6392 322.22 25.762 322.737 25.762C323.092 25.762 323.406 25.7112 323.677 25.6095C323.956 25.4994 324.215 25.33 324.452 25.1013L325.506 26.2448C324.863 26.9817 323.922 27.3502 322.686 27.3502C321.915 27.3502 321.233 27.2019 320.64 26.9055C320.047 26.6006 319.59 26.1813 319.268 25.6477C318.946 25.114 318.785 24.5084 318.785 23.8308C318.785 23.1617 318.942 22.5603 319.255 22.0266C319.577 21.4846 320.013 21.0653 320.564 20.7688C321.123 20.4639 321.746 20.3114 322.432 20.3114C323.101 20.3114 323.706 20.4554 324.249 20.7434C324.791 21.0314 325.214 21.4464 325.519 21.9885C325.832 22.5222 325.989 23.1447 325.989 23.8562ZM322.444 21.8107C321.995 21.8107 321.619 21.9377 321.314 22.1918C321.009 22.4459 320.822 22.7932 320.755 23.2337H324.122C324.054 22.8017 323.867 22.4586 323.562 22.2045C323.258 21.9419 322.885 21.8107 322.444 21.8107ZM334.36 20.4131V26.1051C334.36 27.3586 334.034 28.2904 333.382 28.9002C332.73 29.5101 331.777 29.815 330.523 29.815C329.863 29.815 329.236 29.7345 328.643 29.5736C328.05 29.4127 327.559 29.1797 327.169 28.8748L327.957 27.4518C328.245 27.689 328.609 27.8753 329.049 28.0109C329.49 28.1548 329.93 28.2268 330.371 28.2268C331.057 28.2268 331.561 28.0701 331.883 27.7567C332.213 27.4518 332.378 26.986 332.378 26.3592V26.0669C331.862 26.6344 331.142 26.9182 330.218 26.9182C329.591 26.9182 329.016 26.7827 328.49 26.5116C327.974 26.2321 327.563 25.8425 327.258 25.3427C326.953 24.843 326.801 24.267 326.801 23.6148C326.801 22.9626 326.953 22.3866 327.258 21.8869C327.563 21.3871 327.974 21.0017 328.49 20.7307C329.016 20.4512 329.591 20.3114 330.218 20.3114C331.209 20.3114 331.963 20.6375 332.48 21.2897V20.4131H334.36ZM330.612 25.2919C331.137 25.2919 331.565 25.1395 331.895 24.8345C332.234 24.5211 332.404 24.1146 332.404 23.6148C332.404 23.1151 332.234 22.7127 331.895 22.4078C331.565 22.0944 331.137 21.9377 330.612 21.9377C330.087 21.9377 329.655 22.0944 329.316 22.4078C328.977 22.7127 328.808 23.1151 328.808 23.6148C328.808 24.1146 328.977 24.5211 329.316 24.8345C329.655 25.1395 330.087 25.2919 330.612 25.2919ZM336.205 20.4131H338.187V27.2485H336.205V20.4131ZM337.196 19.4602C336.832 19.4602 336.535 19.3543 336.307 19.1425C336.078 18.9308 335.964 18.6682 335.964 18.3548C335.964 18.0414 336.078 17.7788 336.307 17.5671C336.535 17.3553 336.832 17.2494 337.196 17.2494C337.56 17.2494 337.857 17.3511 338.085 17.5544C338.314 17.7577 338.428 18.0118 338.428 18.3167C338.428 18.647 338.314 18.9223 338.085 19.1425C337.857 19.3543 337.56 19.4602 337.196 19.4602ZM346.989 17.8212V27.2485H345.096V26.4608C344.605 27.0537 343.893 27.3502 342.961 27.3502C342.318 27.3502 341.733 27.2062 341.208 26.9182C340.691 26.6302 340.285 26.2194 339.988 25.6858C339.692 25.1522 339.544 24.5338 339.544 23.8308C339.544 23.1278 339.692 22.5094 339.988 21.9758C340.285 21.4422 340.691 21.0314 341.208 20.7434C341.733 20.4554 342.318 20.3114 342.961 20.3114C343.834 20.3114 344.516 20.5867 345.007 21.1373V17.8212H346.989ZM343.304 25.7239C343.804 25.7239 344.219 25.5545 344.55 25.2157C344.88 24.8684 345.045 24.4068 345.045 23.8308C345.045 23.2548 344.88 22.7974 344.55 22.4586C344.219 22.1113 343.804 21.9377 343.304 21.9377C342.796 21.9377 342.377 22.1113 342.047 22.4586C341.716 22.7974 341.551 23.2548 341.551 23.8308C341.551 24.4068 341.716 24.8684 342.047 25.2157C342.377 25.5545 342.796 25.7239 343.304 25.7239ZM351.58 20.3114C352.639 20.3114 353.452 20.5655 354.02 21.0737C354.587 21.5735 354.871 22.3316 354.871 23.348V27.2485H353.016V26.3973C352.644 27.0325 351.949 27.3502 350.933 27.3502C350.407 27.3502 349.95 27.2612 349.56 27.0834C349.179 26.9055 348.887 26.6599 348.684 26.3465C348.48 26.0331 348.379 25.6773 348.379 25.2792C348.379 24.6439 348.616 24.1442 349.09 23.78C349.573 23.4158 350.314 23.2337 351.314 23.2337H352.889C352.889 22.8017 352.758 22.4713 352.495 22.2426C352.233 22.0055 351.839 21.8869 351.314 21.8869C350.949 21.8869 350.589 21.9462 350.234 22.0648C349.886 22.1749 349.59 22.3273 349.344 22.5222L348.633 21.1373C349.006 20.8747 349.45 20.6714 349.967 20.5274C350.492 20.3834 351.03 20.3114 351.58 20.3114ZM351.428 26.0161C351.767 26.0161 352.068 25.9399 352.33 25.7874C352.593 25.6265 352.779 25.3936 352.889 25.0886V24.3898H351.53C350.717 24.3898 350.31 24.6566 350.31 25.1903C350.31 25.4444 350.407 25.6477 350.602 25.8001C350.805 25.9441 351.081 26.0161 351.428 26.0161Z" fill="#F2EAF8"></path><path d="M280.185 12.182V9.47491C280.185 5.68496 277.207 2.70715 273.417 2.70715C269.627 2.70715 266.649 5.68496 266.649 9.47491V12.182C264.348 12.182 262.589 13.9416 262.589 16.2427V25.7175C262.589 28.0185 264.348 29.7782 266.649 29.7782H280.185C282.486 29.7782 284.246 28.0185 284.246 25.7175V16.2427C284.246 13.9416 282.486 12.182 280.185 12.182ZM269.356 9.47491C269.356 7.17387 271.116 5.41425 273.417 5.41425C275.718 5.41425 277.478 7.17387 277.478 9.47491V12.182H269.356V9.47491ZM274.906 20.9801L274.771 21.1154V23.0104C274.771 23.8225 274.229 24.364 273.417 24.364C272.605 24.364 272.064 23.8225 272.064 23.0104V21.1154C271.251 20.3033 271.116 19.0851 271.928 18.273C272.74 17.4609 273.959 17.3255 274.771 18.1376C275.583 18.8144 275.718 20.168 274.906 20.9801Z" fill="#F2EAF8"></path><path d="M165.269 17.331C164.6 17.331 163.952 17.2294 163.325 17.0261C162.707 16.8143 162.22 16.5433 161.864 16.2129L162.334 15.2219C162.673 15.5269 163.105 15.7767 163.63 15.9715C164.164 16.1579 164.71 16.2511 165.269 16.2511C166.006 16.2511 166.557 16.1282 166.921 15.8826C167.285 15.6285 167.467 15.2939 167.467 14.8789C167.467 14.574 167.365 14.3283 167.162 14.142C166.967 13.9472 166.722 13.7989 166.425 13.6973C166.137 13.5956 165.726 13.4813 165.193 13.3542C164.524 13.1933 163.982 13.0324 163.567 12.8714C163.16 12.7105 162.808 12.4649 162.512 12.1345C162.224 11.7957 162.08 11.3426 162.08 10.7751C162.08 10.3007 162.203 9.87299 162.449 9.49183C162.703 9.11067 163.084 8.80574 163.592 8.57704C164.1 8.34835 164.731 8.234 165.485 8.234C166.01 8.234 166.527 8.30176 167.035 8.43728C167.543 8.57281 167.98 8.76762 168.344 9.02173L167.924 10.0382C167.552 9.80099 167.154 9.62311 166.73 9.50453C166.307 9.37748 165.892 9.31395 165.485 9.31395C164.765 9.31395 164.223 9.44524 163.859 9.70782C163.503 9.97039 163.325 10.3092 163.325 10.7242C163.325 11.0292 163.427 11.279 163.63 11.4739C163.833 11.6602 164.083 11.8084 164.38 11.9185C164.685 12.0202 165.095 12.1303 165.612 12.2489C166.281 12.4098 166.819 12.5708 167.226 12.7317C167.632 12.8926 167.98 13.1383 168.268 13.4686C168.564 13.7989 168.712 14.2436 168.712 14.8027C168.712 15.2685 168.585 15.6963 168.331 16.0859C168.077 16.4671 167.692 16.772 167.175 17.0007C166.658 17.2209 166.023 17.331 165.269 17.331ZM172.843 10.432C173.774 10.432 174.486 10.6607 174.977 11.1181C175.477 11.5755 175.727 12.2574 175.727 13.1637V17.2294H174.571V16.34C174.367 16.6534 174.075 16.8948 173.694 17.0642C173.321 17.2251 172.877 17.3056 172.36 17.3056C171.606 17.3056 171 17.1235 170.543 16.7593C170.094 16.3951 169.87 15.9165 169.87 15.3236C169.87 14.7307 170.086 14.2563 170.518 13.9006C170.95 13.5364 171.636 13.3542 172.576 13.3542H174.507V13.1128C174.507 12.5877 174.355 12.1854 174.05 11.9058C173.745 11.6263 173.296 11.4866 172.703 11.4866C172.305 11.4866 171.915 11.5543 171.534 11.6898C171.153 11.8169 170.831 11.9905 170.568 12.2108L170.06 11.296C170.407 11.0165 170.823 10.8047 171.305 10.6607C171.788 10.5083 172.301 10.432 172.843 10.432ZM172.563 16.3654C173.029 16.3654 173.431 16.2638 173.77 16.0605C174.109 15.8487 174.355 15.5523 174.507 15.1711V14.2309H172.627C171.593 14.2309 171.077 14.5782 171.077 15.2727C171.077 15.6116 171.208 15.8784 171.47 16.0732C171.733 16.268 172.097 16.3654 172.563 16.3654ZM181.77 16.8355C181.592 16.988 181.372 17.1066 181.109 17.1913C180.847 17.2675 180.576 17.3056 180.296 17.3056C179.619 17.3056 179.094 17.1235 178.721 16.7593C178.348 16.3951 178.162 15.8741 178.162 15.1965V11.4993H177.018V10.4955H178.162V9.02173H179.382V10.4955H181.313V11.4993H179.382V15.1457C179.382 15.5099 179.47 15.7894 179.648 15.9842C179.835 16.1791 180.097 16.2765 180.436 16.2765C180.809 16.2765 181.126 16.1706 181.389 15.9588L181.77 16.8355ZM183.245 10.4955H184.464V17.2294H183.245V10.4955ZM183.855 9.1996C183.617 9.1996 183.418 9.12337 183.257 8.97091C183.105 8.81844 183.029 8.6321 183.029 8.41187C183.029 8.19165 183.105 8.0053 183.257 7.85284C183.418 7.69191 183.617 7.61144 183.855 7.61144C184.092 7.61144 184.287 7.68767 184.439 7.84013C184.6 7.98413 184.68 8.16624 184.68 8.38646C184.68 8.61516 184.6 8.80997 184.439 8.97091C184.287 9.12337 184.092 9.1996 183.855 9.1996ZM188.725 17.3056C188.174 17.3056 187.645 17.2336 187.136 17.0896C186.628 16.9371 186.23 16.7466 185.942 16.5179L186.45 15.5523C186.747 15.764 187.107 15.9334 187.53 16.0605C187.954 16.1875 188.381 16.2511 188.813 16.2511C189.881 16.2511 190.414 15.9461 190.414 15.3363C190.414 15.133 190.342 14.9721 190.198 14.8535C190.054 14.7349 189.872 14.6502 189.652 14.5994C189.44 14.5401 189.135 14.4765 188.737 14.4088C188.195 14.3241 187.75 14.2267 187.403 14.1166C187.064 14.0065 186.772 13.8201 186.526 13.5575C186.281 13.295 186.158 12.9265 186.158 12.4522C186.158 11.8423 186.412 11.3553 186.92 10.9911C187.429 10.6184 188.11 10.432 188.966 10.432C189.415 10.432 189.864 10.4871 190.313 10.5972C190.762 10.7073 191.13 10.8555 191.418 11.0419L190.897 12.0075C190.347 11.6517 189.699 11.4739 188.953 11.4739C188.437 11.4739 188.043 11.5586 187.772 11.728C187.501 11.8974 187.365 12.1218 187.365 12.4013C187.365 12.6216 187.441 12.7952 187.594 12.9223C187.746 13.0493 187.933 13.1425 188.153 13.2018C188.381 13.2611 188.699 13.3288 189.106 13.4051C189.648 13.4982 190.084 13.5999 190.414 13.71C190.753 13.8116 191.041 13.9895 191.278 14.2436C191.515 14.4977 191.634 14.8535 191.634 15.3109C191.634 15.9207 191.371 16.4078 190.846 16.772C190.33 17.1277 189.622 17.3056 188.725 17.3056ZM195.623 8.72951C194.895 8.72951 194.531 9.12337 194.531 9.9111V10.4955H196.487V11.4993H194.556V17.2294H193.336V11.4993H192.193V10.4955H193.336V9.8984C193.336 9.22925 193.531 8.69986 193.921 8.31023C194.31 7.9206 194.857 7.72579 195.56 7.72579C195.831 7.72579 196.085 7.75967 196.322 7.82743C196.559 7.89519 196.762 7.9926 196.932 8.11965L196.563 9.04714C196.284 8.83538 195.97 8.72951 195.623 8.72951ZM199.966 10.432C200.897 10.432 201.609 10.6607 202.1 11.1181C202.6 11.5755 202.85 12.2574 202.85 13.1637V17.2294H201.693V16.34C201.49 16.6534 201.198 16.8948 200.817 17.0642C200.444 17.2251 199.999 17.3056 199.483 17.3056C198.729 17.3056 198.123 17.1235 197.666 16.7593C197.217 16.3951 196.992 15.9165 196.992 15.3236C196.992 14.7307 197.208 14.2563 197.64 13.9006C198.072 13.5364 198.759 13.3542 199.699 13.3542H201.63V13.1128C201.63 12.5877 201.477 12.1854 201.173 11.9058C200.868 11.6263 200.419 11.4866 199.826 11.4866C199.428 11.4866 199.038 11.5543 198.657 11.6898C198.276 11.8169 197.954 11.9905 197.691 12.2108L197.183 11.296C197.53 11.0165 197.945 10.8047 198.428 10.6607C198.911 10.5083 199.423 10.432 199.966 10.432ZM199.686 16.3654C200.152 16.3654 200.554 16.2638 200.893 16.0605C201.232 15.8487 201.477 15.5523 201.63 15.1711V14.2309H199.75C198.716 14.2309 198.2 14.5782 198.2 15.2727C198.2 15.6116 198.331 15.8784 198.593 16.0732C198.856 16.268 199.22 16.3654 199.686 16.3654ZM208.079 17.3056C207.393 17.3056 206.779 17.1574 206.237 16.8609C205.703 16.5645 205.284 16.1579 204.979 15.6412C204.674 15.1161 204.521 14.5231 204.521 13.8625C204.521 13.2018 204.674 12.6131 204.979 12.0964C205.284 11.5713 205.703 11.1647 206.237 10.8767C206.779 10.5802 207.393 10.432 208.079 10.432C208.689 10.432 209.231 10.5548 209.705 10.8005C210.188 11.0461 210.561 11.4019 210.823 11.8677L209.896 12.4649C209.684 12.143 209.422 11.9016 209.108 11.7407C208.795 11.5797 208.447 11.4993 208.066 11.4993C207.626 11.4993 207.228 11.5967 206.872 11.7915C206.525 11.9863 206.249 12.2658 206.046 12.63C205.851 12.9858 205.754 13.3966 205.754 13.8625C205.754 14.3368 205.851 14.7561 206.046 15.1203C206.249 15.476 206.525 15.7513 206.872 15.9461C207.228 16.1409 207.626 16.2384 208.066 16.2384C208.447 16.2384 208.795 16.1579 209.108 15.997C209.422 15.836 209.684 15.5946 209.896 15.2727L210.823 15.8572C210.561 16.3231 210.188 16.683 209.705 16.9371C209.231 17.1828 208.689 17.3056 208.079 17.3056ZM207.482 20.0754C207.041 20.0754 206.664 19.9822 206.351 19.7958L206.618 19.1733C206.872 19.3173 207.16 19.3893 207.482 19.3893C207.956 19.3893 208.193 19.2199 208.193 18.8811C208.193 18.7286 208.134 18.6058 208.015 18.5126C207.897 18.4279 207.715 18.3856 207.469 18.3856H207.126L207.444 17.1404H208.143L207.952 17.8646C208.308 17.8985 208.579 18.0086 208.765 18.195C208.96 18.3898 209.057 18.6312 209.057 18.9192C209.057 19.2749 208.913 19.5544 208.625 19.7577C208.337 19.9695 207.956 20.0754 207.482 20.0754ZM214.855 10.432C215.786 10.432 216.498 10.6607 216.989 11.1181C217.489 11.5755 217.739 12.2574 217.739 13.1637V17.2294H216.583V16.34C216.379 16.6534 216.087 16.8948 215.706 17.0642C215.333 17.2251 214.888 17.3056 214.372 17.3056C213.618 17.3056 213.012 17.1235 212.555 16.7593C212.106 16.3951 211.882 15.9165 211.882 15.3236C211.882 14.7307 212.098 14.2563 212.53 13.9006C212.961 13.5364 213.648 13.3542 214.588 13.3542H216.519V13.1128C216.519 12.5877 216.367 12.1854 216.062 11.9058C215.757 11.6263 215.308 11.4866 214.715 11.4866C214.317 11.4866 213.927 11.5543 213.546 11.6898C213.165 11.8169 212.843 11.9905 212.58 12.2108L212.072 11.296C212.419 11.0165 212.834 10.8047 213.317 10.6607C213.8 10.5083 214.312 10.432 214.855 10.432ZM214.575 16.3654C215.041 16.3654 215.443 16.2638 215.782 16.0605C216.121 15.8487 216.367 15.5523 216.519 15.1711V14.2309H214.639C213.605 14.2309 213.089 14.5782 213.089 15.2727C213.089 15.6116 213.22 15.8784 213.482 16.0732C213.745 16.268 214.109 16.3654 214.575 16.3654ZM215.833 9.47912C215.63 9.47912 215.452 9.43677 215.299 9.35207C215.155 9.26737 214.973 9.14031 214.753 8.97091C214.626 8.85233 214.516 8.76762 214.423 8.7168C214.329 8.65751 214.236 8.62786 214.143 8.62786C213.957 8.62786 213.804 8.69986 213.686 8.84386C213.567 8.97938 213.504 9.16996 213.495 9.4156H212.809C212.826 8.94126 212.945 8.56434 213.165 8.28482C213.393 8.0053 213.69 7.86554 214.054 7.86554C214.257 7.86554 214.435 7.91213 214.588 8.0053C214.749 8.09001 214.931 8.21706 215.134 8.38646C215.278 8.50505 215.392 8.59398 215.477 8.65328C215.562 8.7041 215.651 8.72951 215.744 8.72951C215.93 8.72951 216.083 8.66175 216.201 8.52622C216.32 8.3907 216.383 8.20435 216.392 7.96719H217.078C217.061 8.42458 216.938 8.79303 216.71 9.07255C216.489 9.3436 216.197 9.47912 215.833 9.47912ZM222.917 17.3056C222.248 17.3056 221.647 17.1574 221.113 16.8609C220.579 16.5645 220.16 16.1579 219.855 15.6412C219.559 15.1161 219.411 14.5231 219.411 13.8625C219.411 13.2018 219.559 12.6131 219.855 12.0964C220.16 11.5713 220.579 11.1647 221.113 10.8767C221.647 10.5802 222.248 10.432 222.917 10.432C223.586 10.432 224.184 10.5802 224.709 10.8767C225.242 11.1647 225.657 11.5713 225.954 12.0964C226.259 12.6131 226.411 13.2018 226.411 13.8625C226.411 14.5231 226.259 15.1161 225.954 15.6412C225.657 16.1579 225.242 16.5645 224.709 16.8609C224.184 17.1574 223.586 17.3056 222.917 17.3056ZM222.917 16.2384C223.349 16.2384 223.735 16.1409 224.073 15.9461C224.421 15.7428 224.692 15.4633 224.887 15.1076C225.081 14.7434 225.179 14.3283 225.179 13.8625C225.179 13.3966 225.081 12.9858 224.887 12.63C224.692 12.2658 224.421 11.9863 224.073 11.7915C223.735 11.5967 223.349 11.4993 222.917 11.4993C222.485 11.4993 222.096 11.5967 221.748 11.7915C221.41 11.9863 221.138 12.2658 220.935 12.63C220.74 12.9858 220.643 13.3966 220.643 13.8625C220.643 14.3283 220.74 14.7434 220.935 15.1076C221.138 15.4633 221.41 15.7428 221.748 15.9461C222.096 16.1409 222.485 16.2384 222.917 16.2384ZM168.407 25.6427H170.288V29.2511C169.805 29.6153 169.246 29.8948 168.611 30.0896C167.975 30.2844 167.336 30.3818 166.692 30.3818C165.769 30.3818 164.939 30.187 164.202 29.7974C163.465 29.3993 162.885 28.853 162.461 28.1584C162.046 27.4554 161.839 26.6634 161.839 25.7825C161.839 24.9016 162.046 24.1139 162.461 23.4193C162.885 22.7163 163.469 22.17 164.215 21.7803C164.96 21.3822 165.798 21.1832 166.73 21.1832C167.509 21.1832 168.217 21.3145 168.852 21.577C169.487 21.8396 170.021 22.2208 170.453 22.7205L169.132 23.9402C168.496 23.2711 167.73 22.9365 166.832 22.9365C166.264 22.9365 165.76 23.0551 165.32 23.2923C164.879 23.5294 164.536 23.864 164.291 24.296C164.045 24.728 163.922 25.2235 163.922 25.7825C163.922 26.3331 164.045 26.8243 164.291 27.2563C164.536 27.6883 164.875 28.0271 165.307 28.2727C165.748 28.5099 166.247 28.6285 166.806 28.6285C167.399 28.6285 167.933 28.5014 168.407 28.2473V25.6427ZM174.817 23.2923C175.876 23.2923 176.689 23.5464 177.256 24.0546C177.824 24.5543 178.108 25.3124 178.108 26.3288V30.2294H176.253V29.3781C175.88 30.0134 175.185 30.331 174.169 30.331C173.644 30.331 173.186 30.2421 172.797 30.0642C172.416 29.8863 172.123 29.6407 171.92 29.3273C171.717 29.0139 171.615 28.6581 171.615 28.26C171.615 27.6248 171.852 27.125 172.327 26.7608C172.809 26.3966 173.551 26.2145 174.55 26.2145H176.126C176.126 25.7825 175.994 25.4522 175.732 25.2235C175.469 24.9863 175.075 24.8677 174.55 24.8677C174.186 24.8677 173.826 24.927 173.47 25.0456C173.123 25.1557 172.826 25.3082 172.581 25.503L171.869 24.1181C172.242 23.8555 172.687 23.6522 173.203 23.5083C173.729 23.3643 174.266 23.2923 174.817 23.2923ZM174.664 28.997C175.003 28.997 175.304 28.9207 175.567 28.7683C175.829 28.6073 176.015 28.3744 176.126 28.0695V27.3707H174.766C173.953 27.3707 173.546 27.6375 173.546 28.1711C173.546 28.4252 173.644 28.6285 173.839 28.781C174.042 28.925 174.317 28.997 174.664 28.997ZM181.795 24.296C182.032 23.9656 182.349 23.7158 182.747 23.5464C183.154 23.377 183.62 23.2923 184.145 23.2923V25.1218C183.925 25.1049 183.777 25.0964 183.7 25.0964C183.133 25.0964 182.688 25.2574 182.366 25.5792C182.044 25.8926 181.883 26.367 181.883 27.0022V30.2294H179.901V23.3939H181.795V24.296ZM188.043 23.2923C189.102 23.2923 189.915 23.5464 190.483 24.0546C191.05 24.5543 191.334 25.3124 191.334 26.3288V30.2294H189.479V29.3781C189.106 30.0134 188.412 30.331 187.395 30.331C186.87 30.331 186.413 30.2421 186.023 30.0642C185.642 29.8863 185.35 29.6407 185.147 29.3273C184.943 29.0139 184.842 28.6581 184.842 28.26C184.842 27.6248 185.079 27.125 185.553 26.7608C186.036 26.3966 186.777 26.2145 187.777 26.2145H189.352C189.352 25.7825 189.221 25.4522 188.958 25.2235C188.696 24.9863 188.302 24.8677 187.777 24.8677C187.412 24.8677 187.052 24.927 186.697 25.0456C186.349 25.1557 186.053 25.3082 185.807 25.503L185.096 24.1181C185.468 23.8555 185.913 23.6522 186.43 23.5083C186.955 23.3643 187.493 23.2923 188.043 23.2923ZM187.891 28.997C188.23 28.997 188.53 28.9207 188.793 28.7683C189.056 28.6073 189.242 28.3744 189.352 28.0695V27.3707H187.993C187.179 27.3707 186.773 27.6375 186.773 28.1711C186.773 28.4252 186.87 28.6285 187.065 28.781C187.268 28.925 187.544 28.997 187.891 28.997ZM197.283 23.2923C198.13 23.2923 198.811 23.5464 199.328 24.0546C199.853 24.5628 200.116 25.3166 200.116 26.3161V30.2294H198.134V26.6211C198.134 26.079 198.015 25.6766 197.778 25.4141C197.541 25.143 197.198 25.0075 196.749 25.0075C196.249 25.0075 195.851 25.1642 195.555 25.4776C195.258 25.7825 195.11 26.2399 195.11 26.8498V30.2294H193.128V23.3939H195.021V24.1943C195.284 23.9064 195.61 23.6861 195.999 23.5337C196.389 23.3727 196.817 23.2923 197.283 23.2923ZM206.321 29.899C206.126 30.043 205.885 30.1531 205.597 30.2294C205.317 30.2971 205.021 30.331 204.708 30.331C203.894 30.331 203.263 30.1235 202.815 29.7085C202.374 29.2934 202.154 28.6836 202.154 27.8789V25.071H201.099V23.5464H202.154V21.882H204.136V23.5464H205.838V25.071H204.136V27.8535C204.136 28.1415 204.208 28.3659 204.352 28.5269C204.504 28.6793 204.716 28.7556 204.987 28.7556C205.301 28.7556 205.567 28.6709 205.788 28.5014L206.321 29.899ZM207.434 23.3939H209.416V30.2294H207.434V23.3939ZM208.425 22.441C208.061 22.441 207.764 22.3351 207.535 22.1234C207.307 21.9116 207.192 21.649 207.192 21.3356C207.192 21.0222 207.307 20.7597 207.535 20.5479C207.764 20.3362 208.061 20.2303 208.425 20.2303C208.789 20.2303 209.085 20.3319 209.314 20.5352C209.543 20.7385 209.657 20.9926 209.657 21.2975C209.657 21.6279 209.543 21.9031 209.314 22.1234C209.085 22.3351 208.789 22.441 208.425 22.441ZM218.218 20.802V30.2294H216.325V29.4416C215.833 30.0346 215.122 30.331 214.19 30.331C213.547 30.331 212.962 30.187 212.437 29.899C211.92 29.611 211.514 29.2002 211.217 28.6666C210.921 28.133 210.773 27.5147 210.773 26.8116C210.773 26.1086 210.921 25.4903 211.217 24.9567C211.514 24.423 211.92 24.0122 212.437 23.7242C212.962 23.4363 213.547 23.2923 214.19 23.2923C215.063 23.2923 215.745 23.5675 216.236 24.1181V20.802H218.218ZM214.533 28.7047C215.033 28.7047 215.448 28.5353 215.778 28.1965C216.109 27.8492 216.274 27.3876 216.274 26.8116C216.274 26.2357 216.109 25.7783 215.778 25.4395C215.448 25.0922 215.033 24.9185 214.533 24.9185C214.025 24.9185 213.606 25.0922 213.275 25.4395C212.945 25.7783 212.78 26.2357 212.78 26.8116C212.78 27.3876 212.945 27.8492 213.275 28.1965C213.606 28.5353 214.025 28.7047 214.533 28.7047ZM222.809 23.2923C223.868 23.2923 224.681 23.5464 225.249 24.0546C225.816 24.5543 226.1 25.3124 226.1 26.3288V30.2294H224.245V29.3781C223.872 30.0134 223.178 30.331 222.161 30.331C221.636 30.331 221.179 30.2421 220.789 30.0642C220.408 29.8863 220.116 29.6407 219.913 29.3273C219.709 29.0139 219.608 28.6581 219.608 28.26C219.608 27.6248 219.845 27.125 220.319 26.7608C220.802 26.3966 221.543 26.2145 222.543 26.2145H224.118C224.118 25.7825 223.987 25.4522 223.724 25.2235C223.462 24.9863 223.068 24.8677 222.543 24.8677C222.178 24.8677 221.818 24.927 221.463 25.0456C221.115 25.1557 220.819 25.3082 220.573 25.503L219.862 24.1181C220.234 23.8555 220.679 23.6522 221.196 23.5083C221.721 23.3643 222.259 23.2923 222.809 23.2923ZM222.657 28.997C222.996 28.997 223.296 28.9207 223.559 28.7683C223.822 28.6073 224.008 28.3744 224.118 28.0695V27.3707H222.758C221.945 27.3707 221.539 27.6375 221.539 28.1711C221.539 28.4252 221.636 28.6285 221.831 28.781C222.034 28.925 222.31 28.997 222.657 28.997Z" fill="#F2EAF8"></path><path fill-rule="evenodd" clip-rule="evenodd" d="M141.3 5.78394C140.967 4.73869 139.488 4.73869 139.156 5.78394L137.195 11.9557C137.047 12.4225 136.613 12.7396 136.123 12.7396H129.724C128.641 12.7396 128.184 14.1208 129.054 14.7668L134.273 18.6443C134.659 18.9306 134.82 19.43 134.674 19.8875L132.691 26.1293C132.36 27.1698 133.557 28.0236 134.433 27.3726L139.995 23.2408C140.127 23.1428 140.278 23.0751 140.439 23.0421C140.301 23.6156 140.228 24.2151 140.228 24.8321C140.228 28.9596 143.5 32.3056 147.537 32.3056C151.574 32.3056 154.846 28.9596 154.846 24.8321C154.846 20.8293 151.769 17.5615 147.901 17.3677L151.402 14.7668C152.271 14.1208 151.815 12.7396 150.731 12.7396H144.332C143.843 12.7396 143.409 12.4225 143.261 11.9557L141.3 5.78394ZM151.013 20.8079L145.681 26.6573L143.96 24.7699L142.477 26.3984L145.766 30.0061L147.237 28.3947L147.249 28.4083L152.597 22.5453L151.013 20.8079Z" fill="#F2EAF8"></path></svg>