<svg xmlns="http://www.w3.org/2000/svg" width="175" height="116" viewBox="0 0 175 116" fill="none"><path fill-rule="evenodd" clip-rule="evenodd" d="M141.574 79.949C140.841 96.5202 136.727 104.637 129.238 104.307C125.389 104.137 122.636 101.955 120.977 97.7602C119.318 93.5731 118.674 87.3006 119.044 78.9506C119.294 73.3544 119.938 68.6922 120.993 64.948C122.04 61.2119 123.457 58.4339 125.245 56.6141C127.024 54.7944 129.101 53.9408 131.469 54.0455C135.044 54.2066 137.709 56.4531 139.481 60.7932C141.252 65.1332 141.953 71.5185 141.574 79.949ZM93.7529 103.896L94.091 86.7611L100.114 86.8819L100.025 91.4796C99.9691 94.1448 100.211 96.029 100.75 97.1161C101.282 98.2111 102.24 98.7667 103.609 98.7909C104.671 98.815 105.541 98.3883 106.209 97.5187C106.878 96.649 107.232 95.4734 107.256 93.9999C107.28 92.7438 107.079 91.3669 106.652 89.8772C106.226 88.3796 105.71 87.1476 105.09 86.1652C104.478 85.1829 102.916 83.033 100.404 79.7155C97.8111 76.3095 96.088 73.5718 95.2505 71.5185C94.4051 69.4652 94.0105 67.0657 94.0669 64.328C94.1313 61.0669 94.9124 58.4097 96.4261 56.3645C97.9399 54.3193 99.8322 53.3208 102.127 53.3611C104.043 53.4013 105.702 54.2066 107.111 55.7767L107.143 54.2871L113.166 54.4079L112.877 69.2961L106.854 69.1754L106.926 65.407C106.966 63.3376 106.733 61.8319 106.217 60.9059C105.71 59.9799 104.881 59.5048 103.729 59.4807C101.789 59.4404 100.79 60.6482 100.75 63.088C100.726 64.4971 100.984 65.9545 101.531 67.4522C102.079 68.9499 103.053 70.5925 104.454 72.3881L107.482 76.2934C112.055 82.2117 114.294 87.8159 114.197 93.1142C114.125 96.5766 113.231 99.427 111.492 101.665C109.76 103.904 107.627 104.999 105.106 104.951C103.045 104.91 101.29 104.081 99.8161 102.463L99.7839 104.017L93.7609 103.896H93.7529ZM75.7162 103.944L75.4102 98.4446L78.8887 98.2514L76.9562 63.6919L73.4777 63.8851L73.1718 58.3856L86.5624 57.6367L86.8683 63.1363L83.3898 63.3296L85.3223 97.8891L88.8008 97.6958L89.1068 103.195L75.7162 103.944ZM47.8158 108.123L47.3488 102.02L51.0044 101.738L48.0573 63.4262L44.4017 63.708L43.9347 57.6045L58.5814 56.4772L59.0484 62.5807L55.1915 62.8786L58.1385 101.198L64.3064 100.723L63.0906 84.8689L69.194 84.4018L70.885 106.36L47.8238 108.131L47.8158 108.123ZM98.3586 39.9624L101.16 8.39029C100.049 8.43859 99.2444 8.47078 99.2444 8.47078L99.1961 2.64913C99.502 2.64108 105.251 2.5203 109.543 2.55251C110.211 2.56056 110.88 2.62498 111.54 2.75381C115.147 3.45434 118.505 5.92633 119.544 9.41287C120.776 13.5355 118.304 19.8 113.867 21.7164C112.176 22.4492 110.123 22.9484 108.214 23.2946C112.892 37.9227 124.663 44.0347 125.358 44.3956L125.365 44.3991C122.676 46.8631 118.07 46.3316 115.969 45.921C115.464 45.8259 115.116 45.7353 114.959 45.6943C114.904 45.6797 114.872 45.6714 114.865 45.6714C107.876 38.046 105.718 27.5542 105.147 23.8341L103.182 39.7289L105.219 39.6323L105.058 43.5698L94.8157 43.763L95.3874 40.1074L98.3586 39.9624ZM108.818 8.20506C110.88 8.60767 112.877 9.92821 113.287 12.0942C113.819 14.8722 112.047 18.0125 106.813 18.2379C106.467 18.254 106.145 18.2702 105.839 18.2863L107.103 8.08428C107.659 8.05207 108.239 8.08428 108.818 8.20506ZM93.5757 19.3572C93.2697 10.5241 86.812 7.7783 82.5766 7.80246C82.1418 7.80246 81.7311 7.83467 81.3446 7.89103C77.2703 8.50299 72.8336 9.96847 72.6081 10.049L72.6484 15.5808C73.204 15.4197 73.8159 15.2426 74.452 15.0735L74.13 36.8221C73.4053 37.0154 72.6484 37.2006 71.8673 37.3858L72.0686 43.7791C72.4551 43.7147 79.7986 42.4747 83.5509 40.5422C91.772 36.3068 93.8173 26.2498 93.5838 19.3652L93.5757 19.3572ZM86.0792 29.2854C84.9519 31.8701 82.8503 33.5933 79.8067 34.9299L79.9355 14.2039H80.0241C81.7392 14.1958 83.4381 14.5098 84.9197 15.4117C88.7767 17.7468 87.7299 25.509 86.0792 29.2854ZM129.609 36.7819L129.271 32.9008L128.055 33.0538L129.794 24.3495L133.844 23.8583L135.414 33.094L133.425 33.3275L133.369 36.6691L142.468 35.9203L141.953 32.3049L140.552 32.466L135.744 0L131.437 0.136885L122.652 33.7462L120.027 34.0844V37.6193L129.601 36.7819H129.609ZM133.965 21.1447L130.116 21.3702L132.33 10.7656L133.965 21.1367V21.1447ZM31.8083 23.3913L31.3976 14.0831L28.1124 14.6467L27.1381 10.1617L40.3918 8.31779L40.9554 12.4243L37.5896 13.0041L37.3481 22.7391L45.1828 21.8292L44.2568 7.12608L42.123 7.58505L41.8331 2.22237L53.1382 0.0966249L53.3798 5.20164L50.6099 5.78944L50.3844 38.4889L52.3813 38.1829L52.7517 42.6277L43.1214 43.4007L42.9765 39.6243L46.2939 39.117L45.4404 25.5653L37.2434 27.5784L36.9294 40.1879L39.0712 39.8658L39.506 43.4892L30.4072 44.9064L29.5215 41.3071L32.5893 40.8482L32.0659 28.8586L27.597 29.9537L27.3233 23.9227L31.8244 23.3993L31.8083 23.3913ZM55.8759 41.8788L56.0208 37.1362L58.7585 37.2167L59.5476 11.3132L56.8099 11.2326L56.971 6.02295L68.4532 6.36919L68.2922 11.5789L65.5545 11.4984L64.7654 37.4019L67.5031 37.4824L67.342 42.6921L55.8598 42.3459L55.8759 41.8788ZM126.549 79.5384C126.235 86.5759 126.291 91.3749 126.702 93.9355C127.121 96.496 128.055 97.8085 129.52 97.881C130.937 97.9454 131.968 96.7134 132.612 94.2012C133.248 91.689 133.723 86.9302 134.037 79.941C134.376 72.2996 134.351 67.1623 133.973 64.5293C133.595 61.8882 132.66 60.5435 131.179 60.4791C129.609 60.4067 128.522 61.7997 127.918 64.6501C127.322 67.5005 126.863 72.4687 126.549 79.5464V79.5384ZM159.587 30.5335C155.448 34.1891 152.388 40.2845 152.388 40.2845C152.388 40.2845 155.037 36.1619 159.844 31.9989C163.476 28.8586 166.431 28.2869 167.937 29.068C169.66 29.9618 168.621 32.1761 168.621 32.1761C170.231 31.3789 171.109 28.915 169.837 27.8521C168.025 26.3464 164.2 26.4591 159.587 30.5335ZM137.564 45.8485C138.474 45.3895 140.157 46.3075 139.899 47.3059C139.634 48.3044 138.643 49.3914 137.017 48.9486C135.39 48.5057 134.416 45.2688 136.848 43.3685C138.522 42.056 140.656 41.4682 147.339 43.9563C156.003 47.1852 165.449 50.6556 170.352 47.6683C175.465 44.5602 175.892 37.5629 170.634 36.0411C165.585 34.5837 162.598 36.959 162.01 39.8417C161.366 42.9739 163.999 43.7067 163.999 43.7067C163.999 43.7067 162.107 41.8547 163.854 39.3183C165.706 36.6289 171.512 37.7964 171.826 40.3489C172.269 43.916 169.394 47.6522 164.2 47.2657C159.952 46.9561 154.319 44.8953 150.236 43.4018C149.328 43.0696 148.497 42.7655 147.774 42.5149C143.805 41.1461 140.044 40.1718 137.073 41.4923C133.635 43.0142 132.354 47.2979 134.891 49.8826C137.218 52.258 141.598 50.3657 141.783 47.9823C141.92 46.1867 140.793 45.0111 139.167 45.0352C137.943 45.0513 137.556 45.8485 137.556 45.8485H137.564ZM149.98 47.3059C149.98 47.3059 149.994 47.3111 150.021 47.3216C150.649 47.6903 158.347 52.288 160.239 57.1375C161.253 59.7383 160.448 63.0155 158.387 63.5792C156.921 63.9818 155.625 62.5646 155.786 61.3971C155.939 60.2295 157.517 59.3116 158.121 60.0282C158.725 60.7448 157.992 61.4454 157.992 61.4454C159.273 61.1474 159.522 59.0781 157.823 58.909C156.124 58.7399 154.264 60.2537 154.651 62.4197C155.037 64.5857 158.733 65.6808 160.883 63.9496C163.033 62.2264 163.033 57.7978 159.683 54.0858C155.631 49.5902 150.526 47.5193 150.021 47.3216L149.98 47.2979V47.3059ZM149.827 41.2186C149.827 41.2186 152.444 37.5871 153.225 34.2294C154.103 30.4932 152.863 28.4963 151.341 28.0937C150.27 27.8038 149.095 29.0921 149.159 30.1872C149.159 30.1872 150.133 28.9069 151.261 29.4786C152.243 29.9779 152.903 31.6849 152.259 34.5998C151.398 38.4648 149.827 41.2186 149.827 41.2186ZM31.634 83.4617C31.6412 83.4664 31.6483 83.4711 31.6553 83.4758H31.6392C31.6392 83.4758 31.6376 83.4709 31.634 83.4617ZM30.2301 82.5338C31.3029 82.7113 31.5939 83.358 31.634 83.4617C30.8347 82.9465 29.0874 83.5161 29.1752 84.4179C29.2638 85.3359 30.0288 86.431 31.6633 86.278C33.2979 86.125 34.7714 83.4195 32.7504 81.3984C31.3654 80.0054 29.4168 79.176 22.5967 80.408C22.1141 80.4946 21.6389 80.5806 21.1707 80.6654C13.0612 82.1335 7.09336 83.214 2.71612 79.9329C-1.84135 76.5108 -0.0215864 70.9871 4.66472 69.9162C8.77933 68.9821 12.5316 71.9614 12.3947 74.4414C12.2417 77.2757 9.67311 77.7669 9.67311 77.7669C9.67311 77.7669 11.7908 76.4142 10.5427 73.9341C9.21414 71.3011 4.35069 71.2608 2.73222 73.6926C1.25064 75.9149 3.84341 80.4563 8.88401 80.867C12.483 81.1602 15.7864 80.4477 18.847 79.7875L18.8472 79.7875L18.8473 79.7875L18.8474 79.7875L18.8475 79.7875C20.0733 79.5231 21.2602 79.2671 22.4115 79.0875C26.4456 78.4513 30.2059 78.1454 32.8309 79.7236C35.8746 81.5594 36.3818 85.505 33.5234 87.4133C30.8903 89.1687 27.0173 86.8738 27.2347 84.7481C27.4038 83.1457 28.676 82.2841 30.2301 82.5338ZM20.5676 83.3631C20.5676 83.3631 20.5524 83.3636 20.5229 83.365L20.5756 83.3551L20.5676 83.3631ZM20.5229 83.365C19.7064 83.5201 9.63449 85.5035 5.70344 89.6276C3.60185 91.8339 3.18314 95.2963 5.18005 96.5202C6.59722 97.3898 8.53777 96.4316 8.82764 95.2399C9.10946 94.0402 7.77282 92.6391 6.84683 93.1383C5.92084 93.6376 6.42812 94.5636 6.42812 94.5636C5.172 93.855 5.71149 91.7534 7.60373 92.1399C9.49596 92.5264 10.9131 94.6119 9.64895 96.6007C8.38478 98.5896 3.98835 98.4527 2.34572 96.0612C0.711153 93.6778 2.44235 89.3539 7.491 86.8175C13.6174 83.7427 19.9337 83.3915 20.5229 83.365ZM20.6303 77.0177L20.6267 77.0556L20.6239 77.0825H20.632L20.6315 77.0599L20.6303 77.0177ZM19.6979 66.7356C21.1488 70.9522 20.692 76.3673 20.6303 77.0177C20.6134 76.4686 20.4342 72.4986 18.7236 67.7179C17.3306 63.8288 15.1727 62.1379 13.5139 62.0815C11.6217 62.0171 11.3318 64.1106 11.3318 64.1106C10.4058 62.8303 10.9453 60.616 12.5638 60.3664C14.8506 60.0121 17.9748 61.7272 19.6979 66.7356ZM22.2746 76.9054C22.2746 76.9054 22.806 73.1209 24.497 70.5201C26.3731 67.6213 28.6196 67.0174 30.0046 67.5891C30.9869 67.9917 30.9789 69.4733 30.1898 70.1416C30.1898 70.1416 30.3428 68.7728 29.135 68.5312C28.0801 68.3138 26.4456 69.0546 24.9559 71.2931C22.9751 74.2643 22.2746 76.9054 22.2746 76.9054ZM163.371 98.8875C163.903 98.9117 164.096 98.7023 164.007 98.187L164.015 98.1789C163.998 98.1715 163.98 98.1625 163.963 98.1536C163.925 98.1338 163.888 98.1145 163.854 98.1145C163.483 98.0838 163.112 98.0529 162.741 98.0219L162.723 98.0204L162.705 98.0189L162.703 98.0188C161.138 97.8881 159.572 97.7574 158 97.6475C156.111 97.5125 154.214 97.409 152.325 97.3058L152.324 97.3057L152.324 97.3057L152.323 97.3056L152.322 97.3056L152.321 97.3056L152.321 97.3055L152.32 97.3055L152.319 97.3054L152.243 97.3013C150.999 97.233 149.755 97.1689 148.511 97.1047L148.51 97.1046L148.51 97.1046L148.509 97.1045L148.508 97.1045L148.507 97.1044L148.507 97.1044L148.499 97.104L148.498 97.1039L148.497 97.1039L148.497 97.1038L148.496 97.1038L148.495 97.1037L148.495 97.1037L148.494 97.1037L148.493 97.1036C147.247 97.0393 146.001 96.975 144.755 96.9067C144.505 96.8941 144.257 96.8728 144.01 96.8516C143.626 96.8187 143.244 96.7859 142.862 96.7859C142.752 96.7859 142.646 96.8874 142.538 96.9903L142.538 96.9904C142.488 97.038 142.438 97.0859 142.387 97.1241C142.432 97.1664 142.476 97.2163 142.52 97.2664C142.627 97.3876 142.735 97.5096 142.854 97.5267C143.885 97.6636 144.916 97.7602 145.954 97.8327C147.017 97.9063 148.08 97.9694 149.143 98.0325C149.94 98.0798 150.737 98.1272 151.535 98.1789C152.122 98.2179 152.71 98.2602 153.299 98.3025L153.302 98.3027L153.302 98.3028C154.294 98.3741 155.287 98.4455 156.277 98.501C157.461 98.5695 158.643 98.6319 159.824 98.6943L159.829 98.6945L159.829 98.6945L159.83 98.6945L159.83 98.6946L159.831 98.6946L159.831 98.6946L159.832 98.6946L159.832 98.6947C161.011 98.7569 162.19 98.8192 163.371 98.8875ZM141.671 99.58L141.676 99.5817C141.639 99.601 141.6 99.6174 141.561 99.6336C141.472 99.6706 141.385 99.7066 141.341 99.7732C141.131 100.095 141.324 100.297 141.614 100.417C142.669 100.852 143.724 101.287 144.795 101.69C148.459 103.091 152.122 104.476 155.794 105.853L155.824 105.865L155.853 105.877C156.081 105.971 156.336 106.077 156.454 105.692C156.551 105.361 156.487 105.12 156.1 105.015C155.834 104.943 155.569 104.84 155.309 104.738L155.214 104.701L152.817 103.785C149.931 102.682 147.047 101.579 144.159 100.482C143.603 100.271 143.043 100.071 142.463 99.864L142.463 99.8637L142.46 99.8629C142.203 99.7711 141.942 99.6779 141.676 99.5817L141.679 99.58H141.671ZM136.543 104.808L136.542 104.806H136.55L136.543 104.808ZM136.543 104.808C136.849 105.15 137.157 105.49 137.464 105.83L137.465 105.831C137.981 106.402 138.496 106.972 139.006 107.552C139.6 108.227 140.184 108.914 140.767 109.6L140.768 109.6L140.768 109.601L140.769 109.602L140.769 109.602L140.77 109.603L140.77 109.603C141.054 109.937 141.338 110.271 141.622 110.603L141.627 110.609C142.866 112.048 144.104 113.488 145.351 114.911C145.568 115.161 145.648 115.37 145.367 115.62C145.087 115.878 144.928 115.676 144.789 115.498C144.772 115.476 144.755 115.455 144.739 115.435C144.126 114.71 143.518 113.981 142.91 113.252C142.303 112.523 141.695 111.795 141.083 111.07C140.419 110.279 139.75 109.492 139.081 108.707L139.076 108.701C138.563 108.098 138.05 107.495 137.54 106.891C137.145 106.424 136.751 105.949 136.397 105.45C136.324 105.35 136.321 105.203 136.318 105.055C136.317 104.99 136.315 104.924 136.308 104.862L136.308 104.862C136.387 104.846 136.465 104.831 136.543 104.808ZM152.299 93.5409C152.404 93.9113 152.324 94.1126 151.905 94.1529C151.136 94.2233 150.37 94.3083 149.606 94.3932L149.605 94.3933C149.233 94.4345 148.862 94.4758 148.491 94.5152L148.11 94.5548L148.11 94.5548L148.11 94.5548L148.11 94.5548L148.11 94.5549L148.109 94.5549C146.764 94.6946 145.425 94.8337 144.078 94.9662L143.947 94.9792C143.659 95.0082 143.366 95.0376 143.08 95.0306C142.983 95.0306 142.79 94.8615 142.806 94.789C142.83 94.6119 142.911 94.3461 143.032 94.3059C143.37 94.1851 143.748 94.1368 144.111 94.1046C144.425 94.0746 144.741 94.0443 145.056 94.014L145.065 94.0132C146.44 93.8811 147.818 93.7487 149.191 93.6376C149.863 93.5811 150.539 93.5523 151.216 93.5235H151.217L151.217 93.5235L151.218 93.5235L151.218 93.5235C151.506 93.5112 151.794 93.499 152.082 93.4846C152.133 93.4846 152.184 93.5005 152.232 93.5156C152.253 93.5219 152.272 93.5281 152.291 93.5329L152.299 93.5409ZM145.423 108.171L145.432 108.178L145.932 108.588L146.22 108.824L146.212 108.816C146.695 108.333 146.695 108.188 146.236 107.817C145.732 107.408 145.227 106.999 144.722 106.589L144.716 106.584L144.701 106.572L144.687 106.56L144.671 106.547C143.364 105.486 142.054 104.423 140.737 103.364C140.679 103.318 140.62 103.257 140.559 103.193L140.559 103.193L140.559 103.193C140.355 102.98 140.133 102.748 139.891 103.002C139.559 103.354 139.885 103.584 140.154 103.774C140.218 103.819 140.278 103.862 140.326 103.904C141.229 104.7 142.16 105.474 143.086 106.244L143.098 106.254C143.283 106.407 143.467 106.561 143.652 106.714C144.24 107.203 144.832 107.687 145.423 108.171ZM137.54 112.109C137.274 112.496 137.057 112.568 136.759 112.165C136.307 111.537 135.85 110.911 135.392 110.285L135.391 110.284L135.391 110.283L135.39 110.282L135.389 110.28C134.786 109.457 134.184 108.633 133.595 107.801C133.529 107.703 133.541 107.554 133.553 107.402C133.559 107.33 133.565 107.257 133.562 107.189C133.632 107.207 133.712 107.217 133.791 107.228L133.791 107.228L133.792 107.228C133.968 107.251 134.145 107.275 134.223 107.374C134.931 108.252 135.599 109.162 136.252 110.088C136.589 110.567 136.896 111.073 137.201 111.576L137.202 111.576L137.202 111.577L137.202 111.577L137.203 111.578C137.312 111.759 137.422 111.939 137.532 112.117L137.54 112.109ZM143.136 91.3266C142.79 91.4152 142.758 91.689 142.959 92.003C143.049 91.9855 143.139 91.9687 143.229 91.952L143.232 91.9515L143.232 91.9515L143.232 91.9515C143.43 91.9146 143.627 91.8781 143.821 91.8339C145.334 91.4957 146.84 91.1495 148.346 90.7952C148.708 90.7066 149.095 90.5858 148.877 90.0624C148.84 90.059 148.808 90.0527 148.78 90.0472C148.742 90.0397 148.712 90.0336 148.684 90.0383C148.171 90.1564 147.659 90.2733 147.146 90.3902C145.807 90.6955 144.47 91.0005 143.136 91.3266ZM61.609 50.4784C54.7808 51.5413 48.1379 53.4255 41.5915 55.6157L41.5835 55.5915C41.311 55.6831 41.0391 55.7761 40.7674 55.8691C40.1077 56.0948 39.4486 56.3203 38.7814 56.5256C38.3826 56.6492 37.984 56.773 37.5855 56.8967C34.8694 57.7401 32.1563 58.5825 29.4248 59.376C28.3298 59.6981 27.1703 59.7705 26.0349 59.5209C24.4326 59.1747 23.5549 57.9991 23.6918 56.3645C23.7964 55.0762 24.2796 53.9328 25.2458 53.0873C26.0349 52.3948 26.9045 51.7507 27.8225 51.2434C30.8259 49.5847 34.1112 48.6748 37.4286 47.9179C41.6318 46.9597 45.8994 46.4444 50.2153 46.2592C62.9134 45.7197 75.5874 46.0981 88.2291 47.2335C88.7548 47.2809 89.2805 47.3284 89.8061 47.376C98.0314 48.1204 106.247 48.8638 114.519 48.9244C117.885 48.9486 121.235 48.8358 124.536 48.1272C125.539 47.9104 126.538 47.6643 127.537 47.4185C128.021 47.2992 128.505 47.1801 128.989 47.0644C129.022 47.0565 129.056 47.0482 129.091 47.0398C129.304 46.9879 129.529 46.9331 129.73 46.9677C129.947 47.008 130.229 47.169 130.293 47.3381C130.358 47.5153 130.253 47.8374 130.108 47.9904C129.935 48.1703 129.685 48.2858 129.45 48.3946C129.422 48.4075 129.395 48.4204 129.367 48.4332C127.402 49.3512 125.309 49.8262 123.175 50.0678C121.469 50.2608 119.758 50.372 118.045 50.4833C117.544 50.5159 117.042 50.5485 116.54 50.5831C109.575 51.0662 102.61 50.9777 95.6531 50.3818C94.7742 50.3059 93.8957 50.2275 93.0173 50.1492C88.4963 49.7462 83.9792 49.3435 79.4282 49.2626C73.4375 49.1499 67.5031 49.5605 61.609 50.4784Z" fill="white"></path></svg>