<svg xmlns="http://www.w3.org/2000/svg" width="321" height="45" viewBox="0 0 321 45" fill="none"><path d="M41.3574 29.6603C39.6995 29.6603 38.0916 29.4406 36.5335 29.0012C34.9955 28.5417 33.7571 27.9525 32.8182 27.2334L34.4662 23.578C35.365 24.2372 36.4337 24.7665 37.6721 25.166C38.9105 25.5655 40.149 25.7653 41.3874 25.7653C42.7657 25.7653 43.7844 25.5655 44.4435 25.166C45.1027 24.7465 45.4323 24.1972 45.4323 23.5181C45.4323 23.0187 45.2325 22.6092 44.8331 22.2896C44.4535 21.9501 43.9542 21.6804 43.3349 21.4807C42.7357 21.2809 41.9167 21.0612 40.8781 20.8215C39.2801 20.442 37.9717 20.0625 36.953 19.6829C35.9343 19.3034 35.0554 18.6942 34.3164 17.8553C33.5973 17.0163 33.2377 15.8977 33.2377 14.4995C33.2377 13.281 33.5673 12.1824 34.2265 11.2037C34.8856 10.2049 35.8744 9.41592 37.1927 8.83666C38.531 8.25739 40.159 7.96776 42.0765 7.96776C43.4148 7.96776 44.7232 8.12755 46.0016 8.44715C47.28 8.76675 48.3985 9.22617 49.3573 9.82541L47.8592 13.5107C45.9217 12.4121 43.9841 11.8628 42.0466 11.8628C40.6883 11.8628 39.6796 12.0826 39.0204 12.522C38.3812 12.9614 38.0616 13.5407 38.0616 14.2598C38.0616 14.9789 38.4311 15.5182 39.1702 15.8778C39.9293 16.2173 41.0778 16.5569 42.6159 16.8965C44.2138 17.276 45.5222 17.6555 46.5409 18.035C47.5596 18.4145 48.4285 19.0138 49.1476 19.8328C49.8867 20.6517 50.2562 21.7603 50.2562 23.1585C50.2562 24.357 49.9166 25.4556 49.2375 26.4544C48.5783 27.4331 47.5796 28.2122 46.2413 28.7914C44.903 29.3707 43.275 29.6603 41.3574 29.6603ZM51.4455 13.1812H56.1196V29.3008H51.4455V13.1812ZM53.7826 10.934C52.9237 10.934 52.2246 10.6843 51.6852 10.185C51.1459 9.68558 50.8763 9.06637 50.8763 8.3273C50.8763 7.58824 51.1459 6.96902 51.6852 6.46965C52.2246 5.97028 52.9237 5.7206 53.7826 5.7206C54.6415 5.7206 55.3406 5.96029 55.8799 6.43969C56.4193 6.91908 56.6889 7.51832 56.6889 8.23742C56.6889 9.01643 56.4193 9.66561 55.8799 10.185C55.3406 10.6843 54.6415 10.934 53.7826 10.934ZM69.0567 28.5218C68.5973 28.8613 68.028 29.121 67.3489 29.3008C66.6897 29.4606 65.9906 29.5405 65.2515 29.5405C63.334 29.5405 61.8458 29.0511 60.7872 28.0723C59.7485 27.0936 59.2291 25.6554 59.2291 23.7578V17.1362H56.7423V13.5407H59.2291V9.61567H63.9032V13.5407H67.9182V17.1362H63.9032V23.6979C63.9032 24.377 64.073 24.9063 64.4126 25.2859C64.7721 25.6454 65.2715 25.8252 65.9107 25.8252C66.6498 25.8252 67.279 25.6254 67.7983 25.2259L69.0567 28.5218ZM85.1754 21.3009C85.1754 21.3608 85.1454 21.7803 85.0855 22.5593H72.8909C73.1107 23.558 73.63 24.347 74.449 24.9263C75.2679 25.5056 76.2866 25.7952 77.5051 25.7952C78.344 25.7952 79.0831 25.6754 79.7223 25.4357C80.3815 25.176 80.9907 24.7765 81.55 24.2372L84.0368 26.9338C82.5188 28.6716 80.3016 29.5405 77.3852 29.5405C75.5675 29.5405 73.9596 29.1909 72.5613 28.4918C71.1631 27.7727 70.0845 26.784 69.3254 25.5256C68.5664 24.2671 68.1869 22.839 68.1869 21.241C68.1869 19.663 68.5564 18.2448 69.2955 16.9864C70.0545 15.708 71.0832 14.7192 72.3816 14.0201C73.6999 13.301 75.1681 12.9415 76.786 12.9415C78.364 12.9415 79.7922 13.281 81.0706 13.9602C82.349 14.6393 83.3477 15.6181 84.0668 16.8965C84.8059 18.1549 85.1754 19.623 85.1754 21.3009ZM76.816 16.477C75.7573 16.477 74.8684 16.7766 74.1493 17.3759C73.4302 17.9751 72.9908 18.7941 72.831 19.8328H80.771C80.6112 18.814 80.1717 18.0051 79.4526 17.4058C78.7335 16.7866 77.8547 16.477 76.816 16.477ZM86.8191 8.3273H91.673V25.3458H102.19V29.3008H86.8191V8.3273ZM110.328 29.5405C108.63 29.5405 107.102 29.1909 105.743 28.4918C104.405 27.7727 103.356 26.784 102.597 25.5256C101.838 24.2671 101.459 22.839 101.459 21.241C101.459 19.643 101.838 18.2148 102.597 16.9564C103.356 15.698 104.405 14.7192 105.743 14.0201C107.102 13.301 108.63 12.9415 110.328 12.9415C112.026 12.9415 113.544 13.301 114.882 14.0201C116.22 14.7192 117.269 15.698 118.028 16.9564C118.787 18.2148 119.166 19.643 119.166 21.241C119.166 22.839 118.787 24.2671 118.028 25.5256C117.269 26.784 116.22 27.7727 114.882 28.4918C113.544 29.1909 112.026 29.5405 110.328 29.5405ZM110.328 25.7053C111.526 25.7053 112.505 25.3058 113.264 24.5068C114.043 23.6879 114.432 22.5993 114.432 21.241C114.432 19.8827 114.043 18.8041 113.264 18.0051C112.505 17.1861 111.526 16.7766 110.328 16.7766C109.129 16.7766 108.14 17.1861 107.361 18.0051C106.582 18.8041 106.193 19.8827 106.193 21.241C106.193 22.5993 106.582 23.6879 107.361 24.5068C108.14 25.3058 109.129 25.7053 110.328 25.7053ZM128.283 29.5405C126.565 29.5405 125.017 29.1909 123.639 28.4918C122.281 27.7727 121.212 26.784 120.433 25.5256C119.674 24.2671 119.295 22.839 119.295 21.241C119.295 19.643 119.674 18.2148 120.433 16.9564C121.212 15.698 122.281 14.7192 123.639 14.0201C125.017 13.301 126.565 12.9415 128.283 12.9415C129.981 12.9415 131.459 13.301 132.718 14.0201C133.996 14.7192 134.925 15.7279 135.504 17.0463L131.879 18.9938C131.04 17.5157 129.831 16.7766 128.253 16.7766C127.035 16.7766 126.026 17.1761 125.227 17.9751C124.428 18.7741 124.029 19.8627 124.029 21.241C124.029 22.6192 124.428 23.7079 125.227 24.5068C126.026 25.3058 127.035 25.7053 128.253 25.7053C129.851 25.7053 131.06 24.9663 131.879 23.4881L135.504 25.4656C134.925 26.744 133.996 27.7428 132.718 28.4618C131.459 29.1809 129.981 29.5405 128.283 29.5405ZM143.202 22.9788L140.955 25.196V29.3008H136.28V7.06889H140.955V19.653L147.786 13.1812H153.359L146.647 20.0125L153.958 29.3008H148.295L143.202 22.9788Z" fill="white"></path><path d="M35.8258 39.8206C35.3785 39.8206 34.9738 39.7227 34.6118 39.5267C34.254 39.3265 33.9728 39.0539 33.7683 38.7089C33.5639 38.3596 33.4617 37.9677 33.4617 37.5332C33.4617 37.0987 33.5639 36.7089 33.7683 36.3639C33.9728 36.0146 34.2561 35.742 34.6182 35.546C34.9802 35.3458 35.3849 35.2457 35.8322 35.2457C36.1815 35.2457 36.5009 35.3054 36.7906 35.4246C37.0803 35.5396 37.3273 35.7122 37.5318 35.9422L37.1165 36.3447C36.78 35.9912 36.3604 35.8144 35.8577 35.8144C35.5255 35.8144 35.2252 35.8889 34.9568 36.038C34.6884 36.1871 34.4776 36.3937 34.3242 36.6578C34.1752 36.9177 34.1006 37.2095 34.1006 37.5332C34.1006 37.8569 34.1752 38.1508 34.3242 38.4149C34.4776 38.6748 34.6884 38.8793 34.9568 39.0283C35.2252 39.1774 35.5255 39.252 35.8577 39.252C36.3561 39.252 36.7757 39.0731 37.1165 38.7153L37.5318 39.1178C37.3273 39.3478 37.0781 39.5225 36.7842 39.6417C36.4946 39.761 36.1751 39.8206 35.8258 39.8206ZM42.5837 39.2136V39.7695H39.3378V35.2968H42.4943V35.8527H39.9768V37.2265H42.2195V37.7696H39.9768V39.2136H42.5837ZM47.5032 39.7695L46.5384 38.3958C46.4191 38.4043 46.3254 38.4086 46.2572 38.4086H45.1518V39.7695H44.5129V35.2968H46.2572C46.8365 35.2968 47.2923 35.4353 47.6246 35.7122C47.9568 35.989 48.123 36.3703 48.123 36.8559C48.123 37.2009 48.0378 37.4949 47.8674 37.7377C47.697 37.9805 47.4542 38.1572 47.139 38.268L48.1996 39.7695H47.5032ZM46.2381 37.8654C46.6427 37.8654 46.9516 37.7781 47.1645 37.6035C47.3775 37.4288 47.484 37.1796 47.484 36.8559C47.484 36.5322 47.3775 36.2851 47.1645 36.1147C46.9516 35.9401 46.6427 35.8527 46.2381 35.8527H45.1518V37.8654H46.2381ZM50.8756 35.8527H49.3421V35.2968H53.0416V35.8527H51.5081V39.7695H50.8756V35.8527ZM54.6321 35.2968H55.271V39.7695H54.6321V35.2968ZM58.1436 35.8527V37.4118H60.3863V37.9613H58.1436V39.7695H57.5046V35.2968H60.6611V35.8527H58.1436ZM62.455 35.2968H63.094V39.7695H62.455V35.2968ZM67.3275 39.8206C66.8802 39.8206 66.4756 39.7227 66.1135 39.5267C65.7557 39.3265 65.4745 39.0539 65.2701 38.7089C65.0656 38.3596 64.9634 37.9677 64.9634 37.5332C64.9634 37.0987 65.0656 36.7089 65.2701 36.3639C65.4745 36.0146 65.7578 35.742 66.1199 35.546C66.482 35.3458 66.8866 35.2457 67.3339 35.2457C67.6832 35.2457 68.0027 35.3054 68.2923 35.4246C68.582 35.5396 68.8291 35.7122 69.0335 35.9422L68.6182 36.3447C68.2817 35.9912 67.8621 35.8144 67.3595 35.8144C67.0272 35.8144 66.7269 35.8889 66.4585 36.038C66.1902 36.1871 65.9793 36.3937 65.826 36.6578C65.6769 36.9177 65.6023 37.2095 65.6023 37.5332C65.6023 37.8569 65.6769 38.1508 65.826 38.4149C65.9793 38.6748 66.1902 38.8793 66.4585 39.0283C66.7269 39.1774 67.0272 39.252 67.3595 39.252C67.8578 39.252 68.2774 39.0731 68.6182 38.7153L69.0335 39.1178C68.8291 39.3478 68.5799 39.5225 68.2859 39.6417C67.9963 39.761 67.6768 39.8206 67.3275 39.8206ZM73.5832 38.6514H71.2063L70.7143 39.7695H70.0562L72.0817 35.2968H72.7143L74.7461 39.7695H74.0752L73.5832 38.6514ZM73.3596 38.1402L72.3948 35.9486L71.43 38.1402H73.3596ZM76.3079 35.2968H78.1928C78.6656 35.2968 79.0852 35.3906 79.4515 35.578C79.8179 35.7654 80.1011 36.0295 80.3013 36.3703C80.5058 36.7068 80.608 37.0944 80.608 37.5332C80.608 37.9719 80.5058 38.3617 80.3013 38.7025C80.1011 39.039 79.8179 39.301 79.4515 39.4884C79.0852 39.6758 78.6656 39.7695 78.1928 39.7695H76.3079V35.2968ZM78.1545 39.2136C78.5165 39.2136 78.8339 39.1434 79.1065 39.0028C79.3834 38.8622 79.5964 38.6663 79.7455 38.4149C79.8945 38.1594 79.9691 37.8654 79.9691 37.5332C79.9691 37.2009 79.8945 36.9091 79.7455 36.6578C79.5964 36.4022 79.3834 36.2042 79.1065 36.0636C78.8339 35.923 78.5165 35.8527 78.1545 35.8527H76.9468V39.2136H78.1545ZM84.5004 39.8206C84.0489 39.8206 83.6421 39.7227 83.28 39.5267C82.9179 39.3265 82.6325 39.0518 82.4238 38.7025C82.2193 38.3532 82.1171 37.9634 82.1171 37.5332C82.1171 37.103 82.2193 36.7132 82.4238 36.3639C82.6325 36.0146 82.9179 35.742 83.28 35.546C83.6421 35.3458 84.0489 35.2457 84.5004 35.2457C84.9476 35.2457 85.3523 35.3458 85.7144 35.546C86.0765 35.742 86.3597 36.0146 86.5642 36.3639C86.7687 36.7089 86.8709 37.0987 86.8709 37.5332C86.8709 37.9677 86.7687 38.3596 86.5642 38.7089C86.3597 39.0539 86.0765 39.3265 85.7144 39.5267C85.3523 39.7227 84.9476 39.8206 84.5004 39.8206ZM84.5004 39.252C84.8284 39.252 85.1223 39.1774 85.3821 39.0283C85.6462 38.8793 85.8528 38.6748 86.0019 38.4149C86.1553 38.1508 86.2319 37.8569 86.2319 37.5332C86.2319 37.2095 86.1553 36.9177 86.0019 36.6578C85.8528 36.3937 85.6462 36.1871 85.3821 36.038C85.1223 35.8889 84.8284 35.8144 84.5004 35.8144C84.1724 35.8144 83.8742 35.8889 83.6058 36.038C83.3417 36.1871 83.133 36.3937 82.9797 36.6578C82.8306 36.9177 82.756 37.2095 82.756 37.5332C82.756 37.8569 82.8306 38.1508 82.9797 38.4149C83.133 38.6748 83.3417 38.8793 83.6058 39.0283C83.8742 39.1774 84.1724 39.252 84.5004 39.252ZM91.3525 35.2968H93.2374C93.7103 35.2968 94.1298 35.3906 94.4962 35.578C94.8625 35.7654 95.1458 36.0295 95.346 36.3703C95.5505 36.7068 95.6527 37.0944 95.6527 37.5332C95.6527 37.9719 95.5505 38.3617 95.346 38.7025C95.1458 39.039 94.8625 39.301 94.4962 39.4884C94.1298 39.6758 93.7103 39.7695 93.2374 39.7695H91.3525V35.2968ZM93.1991 39.2136C93.5612 39.2136 93.8785 39.1434 94.1511 39.0028C94.428 38.8622 94.641 38.6663 94.7901 38.4149C94.9392 38.1594 95.0137 37.8654 95.0137 37.5332C95.0137 37.2009 94.9392 36.9091 94.7901 36.6578C94.641 36.4022 94.428 36.2042 94.1511 36.0636C93.8785 35.923 93.5612 35.8527 93.1991 35.8527H91.9915V39.2136H93.1991ZM100.772 39.2136V39.7695H97.5259V35.2968H100.682V35.8527H98.1649V37.2265H100.408V37.7696H98.1649V39.2136H100.772ZM106.615 39.8206C106.278 39.8206 105.953 39.7695 105.637 39.6673C105.326 39.5608 105.081 39.4245 104.903 39.2584L105.139 38.76C105.309 38.9133 105.527 39.039 105.791 39.137C106.059 39.2307 106.334 39.2775 106.615 39.2775C106.986 39.2775 107.262 39.2158 107.446 39.0922C107.629 38.9644 107.72 38.7962 107.72 38.5875C107.72 38.4341 107.669 38.3106 107.567 38.2169C107.469 38.1189 107.345 38.0444 107.196 37.9932C107.052 37.9421 106.845 37.8846 106.577 37.8207C106.24 37.7398 105.967 37.6588 105.759 37.5779C105.554 37.497 105.377 37.3734 105.228 37.2073C105.084 37.0369 105.011 36.809 105.011 36.5236C105.011 36.2851 105.073 36.07 105.196 35.8783C105.324 35.6866 105.516 35.5333 105.771 35.4182C106.027 35.3032 106.344 35.2457 106.724 35.2457C106.988 35.2457 107.247 35.2798 107.503 35.348C107.759 35.4161 107.978 35.5141 108.161 35.6419L107.95 36.153C107.763 36.0338 107.563 35.9443 107.35 35.8847C107.137 35.8208 106.928 35.7888 106.724 35.7888C106.361 35.7888 106.089 35.8549 105.906 35.9869C105.727 36.119 105.637 36.2894 105.637 36.4981C105.637 36.6514 105.688 36.7771 105.791 36.8751C105.893 36.9688 106.019 37.0433 106.168 37.0987C106.321 37.1498 106.528 37.2052 106.787 37.2648C107.124 37.3458 107.394 37.4267 107.599 37.5076C107.803 37.5886 107.978 37.7121 108.123 37.8782C108.272 38.0444 108.346 38.268 108.346 38.5491C108.346 38.7834 108.283 38.9985 108.155 39.1945C108.027 39.3862 107.833 39.5395 107.573 39.6545C107.314 39.7653 106.994 39.8206 106.615 39.8206ZM113.42 39.2136V39.7695H110.174V35.2968H113.331V35.8527H110.813V37.2265H113.056V37.7696H110.813V39.2136H113.42ZM118.43 37.5076H119.043V39.252C118.822 39.4351 118.564 39.5757 118.27 39.6737C117.976 39.7717 117.669 39.8206 117.35 39.8206C116.898 39.8206 116.492 39.7227 116.13 39.5267C115.767 39.3265 115.482 39.0539 115.273 38.7089C115.069 38.3596 114.967 37.9677 114.967 37.5332C114.967 37.0987 115.069 36.7068 115.273 36.3575C115.482 36.0082 115.767 35.7356 116.13 35.5396C116.496 35.3437 116.907 35.2457 117.363 35.2457C117.72 35.2457 118.044 35.3054 118.334 35.4246C118.628 35.5396 118.877 35.71 119.081 35.9358L118.685 36.332C118.328 35.9869 117.895 35.8144 117.388 35.8144C117.047 35.8144 116.741 35.8889 116.468 36.038C116.2 36.1829 115.989 36.3873 115.836 36.6514C115.682 36.9113 115.606 37.2052 115.606 37.5332C115.606 37.8569 115.682 38.1508 115.836 38.4149C115.989 38.6748 116.2 38.8793 116.468 39.0283C116.741 39.1774 117.045 39.252 117.382 39.252C117.782 39.252 118.132 39.1561 118.43 38.9644V37.5076ZM123.014 39.8206C122.418 39.8206 121.953 39.6503 121.621 39.3095C121.289 38.9687 121.123 38.4788 121.123 37.8399V35.2968H121.762V37.8143C121.762 38.7728 122.181 39.252 123.02 39.252C123.429 39.252 123.742 39.1348 123.96 38.9006C124.177 38.662 124.286 38.2999 124.286 37.8143V35.2968H124.905V37.8399C124.905 38.4831 124.739 38.9751 124.407 39.3159C124.075 39.6524 123.61 39.8206 123.014 39.8206ZM130.1 39.7695L129.135 38.3958C129.016 38.4043 128.922 38.4086 128.854 38.4086H127.749V39.7695H127.11V35.2968H128.854C129.433 35.2968 129.889 35.4353 130.222 35.7122C130.554 35.989 130.72 36.3703 130.72 36.8559C130.72 37.2009 130.635 37.4949 130.464 37.7377C130.294 37.9805 130.051 38.1572 129.736 38.268L130.797 39.7695H130.1ZM128.835 37.8654C129.24 37.8654 129.548 37.7781 129.761 37.6035C129.974 37.4288 130.081 37.1796 130.081 36.8559C130.081 36.5322 129.974 36.2851 129.761 36.1147C129.548 35.9401 129.24 35.8527 128.835 35.8527H127.749V37.8654H128.835ZM135.496 38.6514H133.12L132.628 39.7695H131.969L133.995 35.2968H134.628L136.659 39.7695H135.988L135.496 38.6514ZM135.273 38.1402L134.308 35.9486L133.343 38.1402H135.273ZM142.068 35.2968V39.7695H141.544L138.86 36.4342V39.7695H138.221V35.2968H138.745L141.429 38.6322V35.2968H142.068ZM146.301 39.8206C145.854 39.8206 145.449 39.7227 145.087 39.5267C144.729 39.3265 144.448 39.0539 144.243 38.7089C144.039 38.3596 143.937 37.9677 143.937 37.5332C143.937 37.0987 144.039 36.7089 144.243 36.3639C144.448 36.0146 144.731 35.742 145.093 35.546C145.455 35.3458 145.86 35.2457 146.307 35.2457C146.657 35.2457 146.976 35.3054 147.266 35.4246C147.555 35.5396 147.802 35.7122 148.007 35.9422L147.592 36.3447C147.255 35.9912 146.835 35.8144 146.333 35.8144C146.001 35.8144 145.7 35.8889 145.432 36.038C145.164 36.1871 144.953 36.3937 144.799 36.6578C144.65 36.9177 144.576 37.2095 144.576 37.5332C144.576 37.8569 144.65 38.1508 144.799 38.4149C144.953 38.6748 145.164 38.8793 145.432 39.0283C145.7 39.1774 146.001 39.252 146.333 39.252C146.831 39.252 147.251 39.0731 147.592 38.7153L148.007 39.1178C147.802 39.3478 147.553 39.5225 147.259 39.6417C146.97 39.761 146.65 39.8206 146.301 39.8206ZM146.039 41.2008C145.817 41.2008 145.628 41.1539 145.47 41.0602L145.604 40.7471C145.732 40.8195 145.877 40.8558 146.039 40.8558C146.277 40.8558 146.397 40.7706 146.397 40.6002C146.397 40.5235 146.367 40.4617 146.307 40.4149C146.248 40.3723 146.156 40.351 146.032 40.351H145.86L146.02 39.7248H146.371L146.275 40.089C146.454 40.106 146.591 40.1614 146.684 40.2551C146.782 40.3531 146.831 40.4745 146.831 40.6193C146.831 40.7982 146.759 40.9388 146.614 41.0411C146.469 41.1475 146.277 41.2008 146.039 41.2008ZM152.557 38.6514H150.18L149.688 39.7695H149.03L151.055 35.2968H151.688L153.719 39.7695H153.049L152.557 38.6514ZM152.333 38.1402L151.368 35.9486L150.403 38.1402H152.333Z" fill="white"></path><path d="M23.514 21.6344H26.8807C27.3325 21.6344 27.6846 22.0298 27.6846 22.4743V39.8737C27.6846 40.3181 27.3325 40.6645 26.8807 40.6645H0.803896C0.352107 40.6645 0 40.3181 0 39.8737V22.4743C0 22.0298 0.352107 21.6344 0.803896 21.6344H4.06932V13.5279C4.06932 8.98031 7.03409 5.22363 11.6067 5.22363H15.9284C20.5508 5.22363 23.5156 8.98031 23.5156 13.5279V21.6344H23.514ZM8.34123 21.6344H19.2951V13.9233C19.2951 11.402 17.1841 9.2761 14.5714 9.2761H13.0135C10.4507 9.2761 8.34123 11.402 8.34123 13.9233V21.6344ZM11.5054 35.6235H16.1776L15.0216 30.6314C15.8255 30.236 16.3786 29.3961 16.3786 28.4565C16.3786 27.0234 15.2226 25.9352 13.8158 25.9352C12.4089 25.9352 11.3028 27.0234 11.3028 28.4565C11.3028 29.3961 11.8559 30.236 12.6598 30.6314L11.5054 35.6235Z" fill="white"></path><path d="M234.452 23.4063H238.886V31.9156C237.747 32.7745 236.429 33.4337 234.931 33.8931C233.433 34.3525 231.925 34.5822 230.407 34.5822C228.229 34.5822 226.272 34.1228 224.534 33.2039C222.796 32.2651 221.428 30.9768 220.429 29.3388C219.451 27.6809 218.961 25.8133 218.961 23.7359C218.961 21.6585 219.451 19.8009 220.429 18.163C221.428 16.5051 222.806 15.2167 224.564 14.2979C226.322 13.359 228.299 12.8896 230.497 12.8896C232.334 12.8896 234.002 13.1992 235.5 13.8185C236.998 14.4377 238.257 15.3365 239.275 16.515L236.159 19.3914C234.661 17.8134 232.854 17.0244 230.736 17.0244C229.398 17.0244 228.209 17.3041 227.171 17.8633C226.132 18.4226 225.323 19.2116 224.744 20.2303C224.165 21.2491 223.875 22.4176 223.875 23.7359C223.875 25.0343 224.165 26.1928 224.744 27.2115C225.323 28.2302 226.122 29.0292 227.141 29.6085C228.179 30.1678 229.358 30.4474 230.676 30.4474C232.075 30.4474 233.333 30.1478 234.452 29.5486V23.4063ZM248.938 34.4624C247.24 34.4624 245.712 34.1128 244.354 33.4137C243.015 32.6946 241.967 31.7058 241.208 30.4474C240.448 29.189 240.069 27.7608 240.069 26.1628C240.069 24.5649 240.448 23.1367 241.208 21.8783C241.967 20.6199 243.015 19.6411 244.354 18.942C245.712 18.2229 247.24 17.8633 248.938 17.8633C250.636 17.8633 252.154 18.2229 253.492 18.942C254.83 19.6411 255.879 20.6199 256.638 21.8783C257.397 23.1367 257.777 24.5649 257.777 26.1628C257.777 27.7608 257.397 29.189 256.638 30.4474C255.879 31.7058 254.83 32.6946 253.492 33.4137C252.154 34.1128 250.636 34.4624 248.938 34.4624ZM248.938 30.6272C250.136 30.6272 251.115 30.2277 251.874 29.4287C252.653 28.6098 253.043 27.5211 253.043 26.1628C253.043 24.8046 252.653 23.7259 251.874 22.9269C251.115 22.108 250.136 21.6985 248.938 21.6985C247.739 21.6985 246.751 22.108 245.972 22.9269C245.192 23.7259 244.803 24.8046 244.803 26.1628C244.803 27.5211 245.192 28.6098 245.972 29.4287C246.751 30.2277 247.739 30.6272 248.938 30.6272ZM266.773 34.4624C265.076 34.4624 263.547 34.1128 262.189 33.4137C260.851 32.6946 259.802 31.7058 259.043 30.4474C258.284 29.189 257.905 27.7608 257.905 26.1628C257.905 24.5649 258.284 23.1367 259.043 21.8783C259.802 20.6199 260.851 19.6411 262.189 18.942C263.547 18.2229 265.076 17.8633 266.773 17.8633C268.471 17.8633 269.989 18.2229 271.328 18.942C272.666 19.6411 273.715 20.6199 274.474 21.8783C275.233 23.1367 275.612 24.5649 275.612 26.1628C275.612 27.7608 275.233 29.189 274.474 30.4474C273.715 31.7058 272.666 32.6946 271.328 33.4137C269.989 34.1128 268.471 34.4624 266.773 34.4624ZM266.773 30.6272C267.972 30.6272 268.951 30.2277 269.71 29.4287C270.489 28.6098 270.878 27.5211 270.878 26.1628C270.878 24.8046 270.489 23.7259 269.71 22.9269C268.951 22.108 267.972 21.6985 266.773 21.6985C265.575 21.6985 264.586 22.108 263.807 22.9269C263.028 23.7259 262.639 24.8046 262.639 26.1628C262.639 27.5211 263.028 28.6098 263.807 29.4287C264.586 30.2277 265.575 30.6272 266.773 30.6272ZM293.568 18.103V31.5261C293.568 34.4823 292.799 36.6795 291.261 38.1177C289.723 39.5559 287.475 40.275 284.519 40.275C282.961 40.275 281.483 40.0852 280.085 39.7057C278.687 39.3262 277.528 38.7769 276.609 38.0578L278.467 34.7021C279.146 35.2613 280.005 35.7008 281.044 36.0204C282.082 36.36 283.121 36.5297 284.16 36.5297C285.778 36.5297 286.966 36.1602 287.725 35.4211C288.504 34.7021 288.894 33.6034 288.894 32.1253V31.4362C287.675 32.7745 285.977 33.4436 283.8 33.4436C282.322 33.4436 280.964 33.124 279.725 32.4849C278.507 31.8257 277.538 30.9068 276.819 29.7283C276.1 28.5498 275.74 27.1915 275.74 25.6535C275.74 24.1154 276.1 22.7572 276.819 21.5786C277.538 20.4001 278.507 19.4913 279.725 18.8521C280.964 18.1929 282.322 17.8633 283.8 17.8633C286.137 17.8633 287.915 18.6324 289.133 20.1704V18.103H293.568ZM284.729 29.6085C285.967 29.6085 286.976 29.2489 287.755 28.5299C288.554 27.7908 288.954 26.832 288.954 25.6535C288.954 24.475 288.554 23.5262 287.755 22.8071C286.976 22.068 285.967 21.6985 284.729 21.6985C283.49 21.6985 282.472 22.068 281.673 22.8071C280.874 23.5262 280.474 24.475 280.474 25.6535C280.474 26.832 280.874 27.7908 281.673 28.5299C282.472 29.2489 283.49 29.6085 284.729 29.6085ZM296.12 11.9908H300.794V34.2227H296.12V11.9908ZM319.125 26.2228C319.125 26.2827 319.095 26.7022 319.035 27.4812H306.84C307.06 28.4799 307.579 29.2689 308.398 29.8482C309.217 30.4275 310.236 30.7171 311.454 30.7171C312.293 30.7171 313.032 30.5972 313.672 30.3575C314.331 30.0979 314.94 29.6984 315.499 29.1591L317.986 31.8556C316.468 33.5935 314.251 34.4624 311.335 34.4624C309.517 34.4624 307.909 34.1128 306.511 33.4137C305.112 32.6946 304.034 31.7058 303.275 30.4474C302.516 29.189 302.136 27.7608 302.136 26.1628C302.136 24.5848 302.506 23.1666 303.245 21.9082C304.004 20.6298 305.033 19.6411 306.331 18.942C307.649 18.2229 309.117 17.8633 310.735 17.8633C312.313 17.8633 313.742 18.2029 315.02 18.8821C316.298 19.5612 317.297 20.54 318.016 21.8183C318.755 23.0767 319.125 24.5449 319.125 26.2228ZM310.765 21.3989C309.707 21.3989 308.818 21.6985 308.099 22.2977C307.38 22.897 306.94 23.7159 306.78 24.7546H314.72C314.56 23.7359 314.121 22.9269 313.402 22.3277C312.683 21.7085 311.804 21.3989 310.765 21.3989Z" fill="white"></path><path d="M243.493 14.2993C242.988 14.2993 242.499 14.2227 242.026 14.0693C241.56 13.9096 241.192 13.7051 240.924 13.4559L241.279 12.7083C241.534 12.9384 241.86 13.1268 242.256 13.2738C242.659 13.4144 243.071 13.4847 243.493 13.4847C244.049 13.4847 244.464 13.392 244.739 13.2067C245.013 13.015 245.151 12.7626 245.151 12.4496C245.151 12.2195 245.074 12.0342 244.921 11.8937C244.774 11.7467 244.589 11.6349 244.365 11.5582C244.148 11.4815 243.838 11.3953 243.435 11.2994C242.93 11.178 242.521 11.0566 242.208 10.9352C241.902 10.8138 241.637 10.6285 241.413 10.3793C241.196 10.1238 241.087 9.78192 241.087 9.35382C241.087 8.996 241.18 8.67333 241.365 8.3858C241.557 8.09827 241.844 7.86825 242.228 7.69573C242.611 7.52321 243.087 7.43695 243.656 7.43695C244.052 7.43695 244.442 7.48807 244.825 7.5903C245.208 7.69254 245.537 7.8395 245.812 8.03118L245.496 8.79793C245.215 8.61902 244.914 8.48484 244.595 8.39539C244.275 8.29954 243.962 8.25162 243.656 8.25162C243.113 8.25162 242.704 8.35066 242.429 8.54874C242.16 8.74681 242.026 9.00239 242.026 9.31548C242.026 9.54551 242.103 9.734 242.256 9.88096C242.41 10.0215 242.598 10.1333 242.822 10.2164C243.052 10.2931 243.362 10.3761 243.751 10.4656C244.256 10.587 244.662 10.7084 244.969 10.8298C245.275 10.9512 245.537 11.1365 245.755 11.3857C245.978 11.6349 246.09 11.9703 246.09 12.3921C246.09 12.7435 245.994 13.0661 245.803 13.3601C245.611 13.6476 245.32 13.8776 244.93 14.0501C244.541 14.2163 244.061 14.2993 243.493 14.2993ZM246.973 9.14296H247.893V14.2227H246.973V9.14296ZM247.433 8.16536C247.254 8.16536 247.104 8.10786 246.982 7.99284C246.867 7.87783 246.81 7.73726 246.81 7.57113C246.81 7.40501 246.867 7.26444 246.982 7.14942C247.104 7.02802 247.254 6.96732 247.433 6.96732C247.612 6.96732 247.759 7.02483 247.874 7.13984C247.995 7.24846 248.056 7.38584 248.056 7.55197C248.056 7.72448 247.995 7.87144 247.874 7.99284C247.759 8.10786 247.612 8.16536 247.433 8.16536ZM252.122 13.9255C251.988 14.0406 251.822 14.13 251.624 14.1939C251.426 14.2514 251.221 14.2802 251.011 14.2802C250.499 14.2802 250.103 14.1428 249.822 13.868C249.541 13.5933 249.4 13.2003 249.4 12.6892V9.90013H248.538V9.14296H249.4V8.03118H250.32V9.14296H251.777V9.90013H250.32V12.6508C250.32 12.9256 250.388 13.1364 250.522 13.2834C250.662 13.4304 250.86 13.5038 251.116 13.5038C251.397 13.5038 251.637 13.424 251.835 13.2642L252.122 13.9255ZM257.274 11.7116C257.274 11.7818 257.267 11.8745 257.255 11.9895H253.133C253.191 12.4368 253.386 12.7978 253.718 13.0725C254.057 13.3409 254.475 13.4751 254.974 13.4751C255.581 13.4751 256.069 13.2706 256.44 12.8617L256.948 13.4559C256.718 13.7243 256.43 13.9287 256.085 14.0693C255.747 14.2099 255.366 14.2802 254.945 14.2802C254.408 14.2802 253.932 14.1715 253.517 13.9543C253.101 13.7307 252.779 13.4208 252.549 13.0246C252.325 12.6285 252.213 12.1812 252.213 11.6828C252.213 11.1908 252.322 10.7467 252.539 10.3506C252.763 9.95444 253.066 9.64774 253.45 9.43049C253.839 9.20686 254.277 9.09504 254.763 9.09504C255.248 9.09504 255.68 9.20686 256.057 9.43049C256.44 9.64774 256.737 9.95444 256.948 10.3506C257.165 10.7467 257.274 11.2004 257.274 11.7116ZM254.763 9.87137C254.322 9.87137 253.951 10.0056 253.651 10.2739C253.357 10.5423 253.184 10.8937 253.133 11.3282H256.392C256.341 10.9001 256.165 10.5519 255.865 10.2835C255.571 10.0087 255.204 9.87137 254.763 9.87137ZM262.448 14.2993C261.943 14.2993 261.454 14.2227 260.982 14.0693C260.515 13.9096 260.148 13.7051 259.879 13.4559L260.234 12.7083C260.49 12.9384 260.815 13.1268 261.212 13.2738C261.614 13.4144 262.026 13.4847 262.448 13.4847C263.004 13.4847 263.419 13.392 263.694 13.2067C263.969 13.015 264.106 12.7626 264.106 12.4496C264.106 12.2195 264.029 12.0342 263.876 11.8937C263.729 11.7467 263.544 11.6349 263.32 11.5582C263.103 11.4815 262.793 11.3953 262.39 11.2994C261.886 11.178 261.477 11.0566 261.164 10.9352C260.857 10.8138 260.592 10.6285 260.368 10.3793C260.151 10.1238 260.042 9.78192 260.042 9.35382C260.042 8.996 260.135 8.67333 260.32 8.3858C260.512 8.09827 260.799 7.86825 261.183 7.69573C261.566 7.52321 262.042 7.43695 262.611 7.43695C263.007 7.43695 263.397 7.48807 263.78 7.5903C264.164 7.69254 264.493 7.8395 264.767 8.03118L264.451 8.79793C264.17 8.61902 263.87 8.48484 263.55 8.39539C263.231 8.29954 262.918 8.25162 262.611 8.25162C262.068 8.25162 261.659 8.35066 261.384 8.54874C261.116 8.74681 260.982 9.00239 260.982 9.31548C260.982 9.54551 261.058 9.734 261.212 9.88096C261.365 10.0215 261.553 10.1333 261.777 10.2164C262.007 10.2931 262.317 10.3761 262.707 10.4656C263.212 10.587 263.617 10.7084 263.924 10.8298C264.231 10.9512 264.493 11.1365 264.71 11.3857C264.933 11.6349 265.045 11.9703 265.045 12.3921C265.045 12.7435 264.949 13.0661 264.758 13.3601C264.566 13.6476 264.275 13.8776 263.886 14.0501C263.496 14.2163 263.017 14.2993 262.448 14.2993ZM270.519 11.7116C270.519 11.7818 270.512 11.8745 270.5 11.9895H266.378C266.436 12.4368 266.631 12.7978 266.963 13.0725C267.302 13.3409 267.72 13.4751 268.219 13.4751C268.826 13.4751 269.314 13.2706 269.685 12.8617L270.193 13.4559C269.963 13.7243 269.675 13.9287 269.33 14.0693C268.992 14.2099 268.612 14.2802 268.19 14.2802C267.653 14.2802 267.177 14.1715 266.762 13.9543C266.346 13.7307 266.024 13.4208 265.794 13.0246C265.57 12.6285 265.458 12.1812 265.458 11.6828C265.458 11.1908 265.567 10.7467 265.784 10.3506C266.008 9.95444 266.311 9.64774 266.695 9.43049C267.084 9.20686 267.522 9.09504 268.008 9.09504C268.493 9.09504 268.925 9.20686 269.302 9.43049C269.685 9.64774 269.982 9.95444 270.193 10.3506C270.41 10.7467 270.519 11.2004 270.519 11.7116ZM268.008 9.87137C267.567 9.87137 267.196 10.0056 266.896 10.2739C266.602 10.5423 266.43 10.8937 266.378 11.3282H269.637C269.586 10.9001 269.41 10.5519 269.11 10.2835C268.816 10.0087 268.449 9.87137 268.008 9.87137ZM276.272 9.14296V13.5326C276.272 14.4207 276.052 15.0757 275.611 15.4974C275.17 15.9255 274.512 16.1395 273.637 16.1395C273.157 16.1395 272.701 16.0724 272.266 15.9383C271.832 15.8105 271.48 15.6252 271.212 15.3824L271.653 14.6731C271.889 14.8776 272.18 15.0373 272.525 15.1523C272.876 15.2737 273.237 15.3344 273.608 15.3344C274.202 15.3344 274.64 15.1939 274.921 14.9127C275.209 14.6316 275.352 14.2035 275.352 13.6284V13.2259C275.135 13.4879 274.867 13.6859 274.547 13.8201C274.234 13.9479 273.892 14.0118 273.522 14.0118C273.036 14.0118 272.595 13.9096 272.199 13.7051C271.809 13.4942 271.503 13.2035 271.279 12.8329C271.055 12.4559 270.943 12.0278 270.943 11.5486C270.943 11.0694 271.055 10.6445 271.279 10.2739C271.503 9.89693 271.809 9.60621 272.199 9.40174C272.595 9.19728 273.036 9.09504 273.522 9.09504C273.905 9.09504 274.26 9.16533 274.586 9.3059C274.918 9.44647 275.189 9.65413 275.4 9.92888V9.14296H276.272ZM273.627 13.2067C273.959 13.2067 274.256 13.1364 274.518 12.9959C274.787 12.8553 274.994 12.6604 275.141 12.4112C275.295 12.1556 275.371 11.8681 275.371 11.5486C275.371 11.0566 275.209 10.6605 274.883 10.3602C274.557 10.0535 274.138 9.90013 273.627 9.90013C273.11 9.90013 272.688 10.0535 272.362 10.3602C272.036 10.6605 271.873 11.0566 271.873 11.5486C271.873 11.8681 271.947 12.1556 272.094 12.4112C272.247 12.6604 272.455 12.8553 272.717 12.9959C272.985 13.1364 273.288 13.2067 273.627 13.2067ZM282.382 9.14296V14.2227H281.51V13.4559C281.324 13.7179 281.078 13.9223 280.772 14.0693C280.471 14.2099 280.142 14.2802 279.784 14.2802C279.107 14.2802 278.574 14.0949 278.184 13.7243C277.794 13.3473 277.599 12.7946 277.599 12.0662V9.14296H278.519V11.9608C278.519 12.4528 278.637 12.8265 278.874 13.0821C279.11 13.3313 279.449 13.4559 279.89 13.4559C280.375 13.4559 280.759 13.309 281.04 13.015C281.321 12.7211 281.462 12.3058 281.462 11.7691V9.14296H282.382ZM284.632 9.99597C284.791 9.70205 285.028 9.47842 285.341 9.32507C285.654 9.17172 286.034 9.09504 286.481 9.09504V9.98638C286.43 9.97999 286.36 9.9768 286.271 9.9768C285.772 9.9768 285.379 10.127 285.092 10.4273C284.811 10.7212 284.67 11.1429 284.67 11.6924V14.2227H283.75V9.14296H284.632V9.99597ZM289.361 14.2802C288.856 14.2802 288.403 14.1683 288 13.9447C287.597 13.7211 287.281 13.4144 287.051 13.0246C286.828 12.6285 286.716 12.1812 286.716 11.6828C286.716 11.1844 286.828 10.7404 287.051 10.3506C287.281 9.95444 287.597 9.64774 288 9.43049C288.403 9.20686 288.856 9.09504 289.361 9.09504C289.866 9.09504 290.316 9.20686 290.712 9.43049C291.115 9.64774 291.428 9.95444 291.652 10.3506C291.882 10.7404 291.997 11.1844 291.997 11.6828C291.997 12.1812 291.882 12.6285 291.652 13.0246C291.428 13.4144 291.115 13.7211 290.712 13.9447C290.316 14.1683 289.866 14.2802 289.361 14.2802ZM289.361 13.4751C289.687 13.4751 289.978 13.4016 290.233 13.2546C290.495 13.1013 290.7 12.8904 290.847 12.6221C290.993 12.3473 291.067 12.0342 291.067 11.6828C291.067 11.3314 290.993 11.0215 290.847 10.7531C290.7 10.4784 290.495 10.2675 290.233 10.1206C289.978 9.97361 289.687 9.90013 289.361 9.90013C289.035 9.90013 288.741 9.97361 288.479 10.1206C288.224 10.2675 288.019 10.4784 287.866 10.7531C287.719 11.0215 287.645 11.3314 287.645 11.6828C287.645 12.0342 287.719 12.3473 287.866 12.6221C288.019 12.8904 288.224 13.1013 288.479 13.2546C288.741 13.4016 289.035 13.4751 289.361 13.4751Z" fill="white"></path><path d="M196.264 41.0737C196.264 41.0737 213.979 37.546 213.979 11.0884L196.264 5.79688L178.549 11.0884C178.549 39.3099 196.264 41.0737 196.264 41.0737ZM204.084 18.1438L194.492 27.6932L188.444 21.6714L190.949 19.1774L194.492 22.7051L201.578 15.6497L204.084 18.1438Z" fill="white"></path></svg>